M48
; DRILL file {KiCad 8.0.1-1.fc39} date 2024-04-14T17:27:18+0300
; FORMAT={-:-/ absolute / inch / decimal}
; #@! TF.CreationDate,2024-04-14T17:27:18+03:00
; #@! TF.GenerationSoftware,Kicad,Pcbnew,8.0.1-1.fc39
; #@! TF.FileFunction,Plated,1,2,PTH
FMAT,2
INCH
; #@! TA.AperFunction,Plated,PTH,ComponentDrill
T1C0.0315
; #@! TA.AperFunction,Plated,PTH,ComponentDrill
T2C0.0441
%
G90
G05
T1
X4.2953Y-4.7146
X4.2953Y-5.2146
X4.4094Y-4.9181
X4.4094Y-5.3181
X4.4488Y-4.6063
X4.4488Y-4.8031
X4.5205Y-5.4055
X4.5213Y-5.0689
X4.5213Y-5.2362
X4.6063Y-4.5606
X4.6063Y-4.9606
X4.7181Y-4.4685
X4.8165Y-4.6024
X4.8165Y-4.9024
X4.8189Y-4.3307
X4.9165Y-4.6024
X4.9165Y-4.9024
X4.9205Y-5.4055
X4.9213Y-5.0689
X4.9213Y-5.2362
X4.9476Y-4.1437
X5.0165Y-4.6024
X5.0165Y-4.9024
X5.0512Y-5.0252
X5.0512Y-5.4252
X5.1165Y-4.6024
X5.1165Y-4.9024
X5.1181Y-4.4685
X5.2165Y-4.6024
X5.2165Y-4.9024
X5.2165Y-5.0283
X5.2165Y-5.4283
X5.2189Y-4.3307
X5.3165Y-4.6024
X5.3165Y-4.9024
X5.3476Y-4.1437
X5.3642Y-5.0886
X5.3642Y-5.3886
X5.4134Y-4.2717
X5.4134Y-4.4685
X5.4165Y-4.6024
X5.4165Y-4.9024
X5.4724Y-5.0886
X5.4724Y-5.3886
X5.5465Y-4.6016
X5.5465Y-4.9016
X5.561Y-4.0748
X5.561Y-4.4748
X5.5906Y-5.0886
X5.5906Y-5.3886
X5.6465Y-4.6016
X5.6465Y-4.9016
X5.7283Y-4.0764
X5.7283Y-4.4764
X5.7465Y-4.6016
X5.7465Y-4.9016
X5.8465Y-4.6016
X5.8465Y-4.9016
X5.8724Y-5.1323
X5.8724Y-5.3323
X5.9055Y-4.0764
X5.9055Y-4.4764
X5.9724Y-5.2323
X6.0827Y-4.2224
X6.0827Y-4.4193
X6.0827Y-4.5276
X6.0827Y-4.9276
T2
X4.1469Y-4.415
X4.1469Y-4.515
X4.1469Y-4.615
X4.1469Y-4.715
X4.1469Y-4.815
X4.1469Y-4.915
X4.1469Y-5.015
X4.1469Y-5.115
X4.1469Y-5.215
X4.1469Y-5.315
M30
