G04 #@! TF.GenerationSoftware,KiCad,Pcbnew,8.0.1-1.fc39*
G04 #@! TF.CreationDate,2024-04-14T17:27:16+03:00*
G04 #@! TF.ProjectId,Regulator_PCB_VerA_rev0.1,52656775-6c61-4746-9f72-5f5043425f56,0.1*
G04 #@! TF.SameCoordinates,Original*
G04 #@! TF.FileFunction,Copper,L1,Top*
G04 #@! TF.FilePolarity,Positive*
%FSLAX46Y46*%
G04 Gerber Fmt 4.6, Leading zero omitted, Abs format (unit mm)*
G04 Created by KiCad (PCBNEW 8.0.1-1.fc39) date 2024-04-14 17:27:16*
%MOMM*%
%LPD*%
G01*
G04 APERTURE LIST*
G04 #@! TA.AperFunction,ComponentPad*
%ADD10C,1.600000*%
G04 #@! TD*
G04 #@! TA.AperFunction,ComponentPad*
%ADD11O,1.600000X1.600000*%
G04 #@! TD*
G04 #@! TA.AperFunction,ComponentPad*
%ADD12R,1.600000X1.600000*%
G04 #@! TD*
G04 #@! TA.AperFunction,ComponentPad*
%ADD13C,1.440000*%
G04 #@! TD*
G04 #@! TA.AperFunction,ComponentPad*
%ADD14C,1.680000*%
G04 #@! TD*
G04 #@! TA.AperFunction,Conductor*
%ADD15C,0.600000*%
G04 #@! TD*
G04 #@! TA.AperFunction,Conductor*
%ADD16C,1.000000*%
G04 #@! TD*
G04 APERTURE END LIST*
D10*
X117000000Y-126000000D03*
D11*
X117000000Y-115840000D03*
D12*
X137580000Y-116900000D03*
D11*
X135040000Y-116900000D03*
X132500000Y-116900000D03*
X129960000Y-116900000D03*
X127420000Y-116900000D03*
X124880000Y-116900000D03*
X122340000Y-116900000D03*
X122340000Y-124520000D03*
X124880000Y-124520000D03*
X127420000Y-124520000D03*
X129960000Y-124520000D03*
X132500000Y-124520000D03*
X135040000Y-124520000D03*
X137580000Y-124520000D03*
D10*
X145500000Y-113700000D03*
D11*
X145500000Y-103540000D03*
D10*
X150000000Y-113700000D03*
D11*
X150000000Y-103540000D03*
D12*
X139000000Y-136870000D03*
D11*
X139000000Y-129250000D03*
D10*
X142000000Y-136870000D03*
D11*
X142000000Y-129250000D03*
D10*
X125000000Y-133000000D03*
D11*
X114840000Y-133000000D03*
D10*
X125670000Y-105250000D03*
D11*
X135830000Y-105250000D03*
D10*
X112000000Y-124920000D03*
D11*
X112000000Y-135080000D03*
D12*
X125000000Y-128750000D03*
D11*
X114840000Y-128750000D03*
D10*
X114820000Y-137300000D03*
D11*
X124980000Y-137300000D03*
D10*
X113000000Y-117000000D03*
X113000000Y-122000000D03*
D13*
X149160000Y-135440000D03*
X151700000Y-132900000D03*
X149160000Y-130360000D03*
D10*
X154500000Y-115000000D03*
D11*
X154500000Y-125160000D03*
D12*
X140880000Y-124500000D03*
D11*
X143420000Y-124500000D03*
X145960000Y-124500000D03*
X148500000Y-124500000D03*
X148500000Y-116880000D03*
X145960000Y-116880000D03*
X143420000Y-116880000D03*
X140880000Y-116880000D03*
D12*
X109100000Y-119750000D03*
D11*
X109100000Y-132450000D03*
D12*
X136250000Y-129250000D03*
D11*
X136250000Y-136870000D03*
D10*
X154500000Y-107250000D03*
X154500000Y-112250000D03*
D14*
X105330000Y-112140000D03*
X105330000Y-114680000D03*
X105330000Y-117220000D03*
X105330000Y-119760000D03*
X105330000Y-122300000D03*
X105330000Y-124840000D03*
X105330000Y-127380000D03*
X105330000Y-129920000D03*
X105330000Y-132460000D03*
X105330000Y-135000000D03*
D10*
X128300000Y-137800000D03*
D11*
X128300000Y-127640000D03*
D10*
X132500000Y-137880000D03*
D11*
X132500000Y-127720000D03*
D10*
X137500000Y-113500000D03*
X137500000Y-108500000D03*
X122400000Y-110000000D03*
D11*
X132560000Y-110000000D03*
D10*
X130000000Y-113500000D03*
D11*
X119840000Y-113500000D03*
D10*
X141250000Y-103500000D03*
D11*
X141250000Y-113660000D03*
D15*
X147409276Y-132110724D02*
G75*
G02*
X144055267Y-133499972I-3353976J3354024D01*
G01*
X149160000Y-130360000D02*
X147409276Y-132110724D01*
X144055267Y-133500000D02*
X125500000Y-133500000D01*
X125500000Y-133500000D02*
X125000000Y-133000000D01*
D16*
X133551573Y-135000000D02*
G75*
G02*
X134965801Y-135585773I27J-2000000D01*
G01*
X117668427Y-135000000D02*
G75*
G02*
X116254200Y-134414228I-27J2000000D01*
G01*
D15*
X145171573Y-138600000D02*
G75*
G03*
X146585801Y-138014227I27J2000000D01*
G01*
X135388889Y-138600000D02*
X145171573Y-138600000D01*
X146585787Y-138014213D02*
X149160000Y-135440000D01*
X125594215Y-136685787D02*
G75*
G02*
X127008427Y-136100020I1414185J-1414213D01*
G01*
X127008427Y-136100000D02*
X132914596Y-136100000D01*
X124980000Y-137300000D02*
X125594214Y-136685786D01*
D16*
X114840000Y-133000000D02*
X116254214Y-134414214D01*
X117668427Y-135000000D02*
X133551573Y-135000000D01*
X134965787Y-135585787D02*
X136250000Y-136870000D01*
D15*
X133700000Y-136425325D02*
G75*
G03*
X132914596Y-136099995I-785400J-785375D01*
G01*
X134074675Y-137285786D02*
G75*
G03*
X133731154Y-136456499I-1172775J-14D01*
G01*
X134074675Y-137285786D02*
G75*
G03*
X134367556Y-137992905I1000025J-14D01*
G01*
X134681782Y-138307107D02*
G75*
G03*
X135388889Y-138600008I707118J707107D01*
G01*
X133700000Y-136425325D02*
X133731164Y-136456489D01*
X134367568Y-137992893D02*
X134681782Y-138307107D01*
X114414213Y-124085785D02*
G75*
G03*
X114999980Y-122671573I-1414213J1414185D01*
G01*
X112751573Y-124920000D02*
G75*
G03*
X114165801Y-124334227I27J2000000D01*
G01*
X116653579Y-114400000D02*
X117291221Y-114400000D01*
X115500000Y-115000000D02*
X115708561Y-114791439D01*
X115000000Y-122671573D02*
X115000000Y-116207106D01*
X114165787Y-124334213D02*
X114414214Y-124085786D01*
X118330472Y-114830472D02*
X118507107Y-115007107D01*
X122310000Y-116870000D02*
G75*
G03*
X122370000Y-116870000I30000J30001D01*
G01*
X119214214Y-115300000D02*
X119776191Y-115300000D01*
X119776191Y-115300000D02*
G75*
G02*
X121421512Y-115981520I9J-2326800D01*
G01*
X112000000Y-124920000D02*
X112751573Y-124920000D01*
X118507107Y-115007107D02*
G75*
G03*
X119214214Y-115299990I707093J707107D01*
G01*
X117291221Y-114400000D02*
G75*
G02*
X118330457Y-114830487I-21J-1469700D01*
G01*
X115708561Y-114791439D02*
G75*
G02*
X116653579Y-114399998I945039J-945061D01*
G01*
X122370000Y-116870000D02*
G75*
G03*
X122399989Y-116797573I-72400J72400D01*
G01*
X115000000Y-116207106D02*
G75*
G02*
X115499998Y-114999998I1707100J6D01*
G01*
X121421516Y-115981516D02*
X122310000Y-116870000D01*
X122400000Y-116797573D02*
X122400000Y-110000000D01*
X128057331Y-107600000D02*
G75*
G03*
X130178671Y-106721311I-31J3000100D01*
G01*
X116147066Y-107600000D02*
G75*
G03*
X109767507Y-110242517I34J-9022100D01*
G01*
X133730765Y-105250000D02*
G75*
G03*
X130178700Y-106721340I35J-5023400D01*
G01*
X144668680Y-104371320D02*
G75*
G02*
X142547359Y-105249971I-2121280J2121320D01*
G01*
X135830000Y-105250000D02*
X142547359Y-105250000D01*
X144668680Y-104371320D02*
X145500000Y-103540000D01*
X116147066Y-107600000D02*
X128057331Y-107600000D01*
X133730765Y-105250000D02*
X135830000Y-105250000D01*
X105330000Y-114680000D02*
X109767495Y-110242505D01*
X119750000Y-125194543D02*
X119750000Y-126909009D01*
X132310344Y-127909656D02*
X132500000Y-127720000D01*
X117000000Y-118665000D02*
X117000000Y-115840000D01*
X118375000Y-121875000D02*
X118297540Y-121797540D01*
X126780966Y-130200000D02*
X122263166Y-130200000D01*
X120875000Y-129625000D02*
G75*
G02*
X119749996Y-126909009I2716000J2716000D01*
G01*
X126780966Y-130200000D02*
G75*
G03*
X132310357Y-127909669I34J7819700D01*
G01*
X117000000Y-118665000D02*
G75*
G03*
X118297536Y-121797544I4430100J0D01*
G01*
X120875000Y-129625000D02*
G75*
G03*
X122263166Y-130200040I1388200J1388100D01*
G01*
X119750000Y-125194543D02*
G75*
G03*
X118375013Y-121874987I-4694500J43D01*
G01*
G04 #@! TA.AperFunction,Conductor*
G36*
X160642539Y-100320185D02*
G01*
X160688294Y-100372989D01*
X160699500Y-100424500D01*
X160699500Y-139575500D01*
X160679815Y-139642539D01*
X160627011Y-139688294D01*
X160575500Y-139699500D01*
X100424500Y-139699500D01*
X100357461Y-139679815D01*
X100311706Y-139627011D01*
X100300500Y-139575500D01*
X100300500Y-137300001D01*
X113506502Y-137300001D01*
X113526456Y-137528081D01*
X113526457Y-137528089D01*
X113585714Y-137749238D01*
X113585718Y-137749249D01*
X113646689Y-137880001D01*
X113682477Y-137956749D01*
X113813802Y-138144300D01*
X113975700Y-138306198D01*
X114163251Y-138437523D01*
X114204482Y-138456749D01*
X114370750Y-138534281D01*
X114370752Y-138534281D01*
X114370757Y-138534284D01*
X114591913Y-138593543D01*
X114754832Y-138607796D01*
X114819998Y-138613498D01*
X114820000Y-138613498D01*
X114820002Y-138613498D01*
X114877021Y-138608509D01*
X115048087Y-138593543D01*
X115269243Y-138534284D01*
X115476749Y-138437523D01*
X115664300Y-138306198D01*
X115826198Y-138144300D01*
X115957523Y-137956749D01*
X116054284Y-137749243D01*
X116113543Y-137528087D01*
X116133498Y-137300000D01*
X116132255Y-137285797D01*
X116122483Y-137174097D01*
X116113543Y-137071913D01*
X116054284Y-136850757D01*
X115957523Y-136643251D01*
X115826198Y-136455700D01*
X115664300Y-136293802D01*
X115476749Y-136162477D01*
X115476745Y-136162475D01*
X115269249Y-136065718D01*
X115269238Y-136065714D01*
X115048089Y-136006457D01*
X115048081Y-136006456D01*
X114820002Y-135986502D01*
X114819998Y-135986502D01*
X114591918Y-136006456D01*
X114591910Y-136006457D01*
X114370761Y-136065714D01*
X114370750Y-136065718D01*
X114163254Y-136162475D01*
X114163252Y-136162476D01*
X114163251Y-136162477D01*
X113975700Y-136293802D01*
X113975698Y-136293803D01*
X113975695Y-136293806D01*
X113813806Y-136455695D01*
X113813803Y-136455698D01*
X113813802Y-136455700D01*
X113755521Y-136538934D01*
X113682476Y-136643252D01*
X113682475Y-136643254D01*
X113585718Y-136850750D01*
X113585714Y-136850761D01*
X113526457Y-137071910D01*
X113526456Y-137071918D01*
X113506502Y-137299998D01*
X113506502Y-137300001D01*
X100300500Y-137300001D01*
X100300500Y-135000001D01*
X103976349Y-135000001D01*
X103996913Y-135235053D01*
X103996915Y-135235064D01*
X104057981Y-135462968D01*
X104057983Y-135462972D01*
X104057984Y-135462976D01*
X104147126Y-135654142D01*
X104157704Y-135676826D01*
X104157706Y-135676830D01*
X104260613Y-135823795D01*
X104293043Y-135870110D01*
X104459890Y-136036957D01*
X104556532Y-136104626D01*
X104653169Y-136172293D01*
X104653171Y-136172294D01*
X104653174Y-136172296D01*
X104867024Y-136272016D01*
X105094941Y-136333086D01*
X105262840Y-136347775D01*
X105329998Y-136353651D01*
X105330000Y-136353651D01*
X105330002Y-136353651D01*
X105388764Y-136348509D01*
X105565059Y-136333086D01*
X105792976Y-136272016D01*
X106006826Y-136172296D01*
X106200110Y-136036957D01*
X106366957Y-135870110D01*
X106502296Y-135676826D01*
X106602016Y-135462976D01*
X106663086Y-135235059D01*
X106676652Y-135080001D01*
X110686502Y-135080001D01*
X110706456Y-135308081D01*
X110706457Y-135308089D01*
X110765714Y-135529238D01*
X110765718Y-135529249D01*
X110860484Y-135732475D01*
X110862477Y-135736749D01*
X110993802Y-135924300D01*
X111155700Y-136086198D01*
X111343251Y-136217523D01*
X111460108Y-136272014D01*
X111550750Y-136314281D01*
X111550752Y-136314281D01*
X111550757Y-136314284D01*
X111771913Y-136373543D01*
X111934832Y-136387796D01*
X111999998Y-136393498D01*
X112000000Y-136393498D01*
X112000002Y-136393498D01*
X112057021Y-136388509D01*
X112228087Y-136373543D01*
X112449243Y-136314284D01*
X112656749Y-136217523D01*
X112844300Y-136086198D01*
X113006198Y-135924300D01*
X113137523Y-135736749D01*
X113234284Y-135529243D01*
X113293543Y-135308087D01*
X113313498Y-135080000D01*
X113311858Y-135061259D01*
X113301140Y-134938751D01*
X113293543Y-134851913D01*
X113234284Y-134630757D01*
X113210904Y-134580619D01*
X113171129Y-134495320D01*
X113137523Y-134423251D01*
X113006198Y-134235700D01*
X112844300Y-134073802D01*
X112656749Y-133942477D01*
X112656745Y-133942475D01*
X112449249Y-133845718D01*
X112449238Y-133845714D01*
X112228089Y-133786457D01*
X112228081Y-133786456D01*
X112000002Y-133766502D01*
X111999998Y-133766502D01*
X111771918Y-133786456D01*
X111771910Y-133786457D01*
X111550761Y-133845714D01*
X111550750Y-133845718D01*
X111343254Y-133942475D01*
X111343252Y-133942476D01*
X111289577Y-133980060D01*
X111155700Y-134073802D01*
X111155698Y-134073803D01*
X111155695Y-134073806D01*
X110993806Y-134235695D01*
X110993803Y-134235698D01*
X110993802Y-134235700D01*
X110942846Y-134308473D01*
X110862476Y-134423252D01*
X110862475Y-134423254D01*
X110765718Y-134630750D01*
X110765714Y-134630761D01*
X110706457Y-134851910D01*
X110706456Y-134851918D01*
X110686502Y-135079998D01*
X110686502Y-135080001D01*
X106676652Y-135080001D01*
X106683651Y-135000000D01*
X106681850Y-134979419D01*
X106672509Y-134872650D01*
X106663086Y-134764941D01*
X106602016Y-134537024D01*
X106502296Y-134323175D01*
X106502294Y-134323172D01*
X106502293Y-134323170D01*
X106366956Y-134129888D01*
X106200111Y-133963044D01*
X106200105Y-133963039D01*
X106056637Y-133862582D01*
X106012353Y-133831574D01*
X105968729Y-133776998D01*
X105961535Y-133707500D01*
X105993058Y-133645145D01*
X106012354Y-133628425D01*
X106046728Y-133604356D01*
X106200110Y-133496957D01*
X106366957Y-133330110D01*
X106502296Y-133136826D01*
X106602016Y-132922976D01*
X106663086Y-132695059D01*
X106683651Y-132460000D01*
X106683142Y-132454186D01*
X106682776Y-132450001D01*
X107786502Y-132450001D01*
X107806456Y-132678081D01*
X107806457Y-132678089D01*
X107865714Y-132899238D01*
X107865718Y-132899249D01*
X107962475Y-133106745D01*
X107962477Y-133106749D01*
X108093802Y-133294300D01*
X108255700Y-133456198D01*
X108443251Y-133587523D01*
X108530966Y-133628425D01*
X108650750Y-133684281D01*
X108650752Y-133684281D01*
X108650757Y-133684284D01*
X108871913Y-133743543D01*
X109034832Y-133757796D01*
X109099998Y-133763498D01*
X109100000Y-133763498D01*
X109100002Y-133763498D01*
X109157021Y-133758509D01*
X109328087Y-133743543D01*
X109549243Y-133684284D01*
X109756749Y-133587523D01*
X109944300Y-133456198D01*
X110106198Y-133294300D01*
X110237523Y-133106749D01*
X110287300Y-133000001D01*
X113526502Y-133000001D01*
X113546456Y-133228081D01*
X113546457Y-133228089D01*
X113605714Y-133449238D01*
X113605718Y-133449249D01*
X113689269Y-133628425D01*
X113702477Y-133656749D01*
X113833802Y-133844300D01*
X113995700Y-134006198D01*
X114183251Y-134137523D01*
X114228888Y-134158803D01*
X114246495Y-134168842D01*
X115203162Y-134823403D01*
X115301338Y-134890576D01*
X115318998Y-134905233D01*
X115471906Y-135058141D01*
X115471913Y-135058149D01*
X115493752Y-135079988D01*
X115493767Y-135080002D01*
X115505718Y-135091953D01*
X115505751Y-135092014D01*
X115645595Y-135231855D01*
X115874100Y-135419381D01*
X115874116Y-135419392D01*
X116119886Y-135583606D01*
X116339810Y-135701154D01*
X116380581Y-135722946D01*
X116653678Y-135836063D01*
X116936549Y-135921867D01*
X117226467Y-135979532D01*
X117520642Y-136008502D01*
X117668441Y-136008500D01*
X124149876Y-136008500D01*
X124216915Y-136028185D01*
X124262670Y-136080989D01*
X124272614Y-136150147D01*
X124243589Y-136213703D01*
X124221004Y-136234071D01*
X124135700Y-136293802D01*
X124135698Y-136293803D01*
X124135695Y-136293806D01*
X123973806Y-136455695D01*
X123973803Y-136455698D01*
X123973802Y-136455700D01*
X123915521Y-136538934D01*
X123842476Y-136643252D01*
X123842475Y-136643254D01*
X123745718Y-136850750D01*
X123745714Y-136850761D01*
X123686457Y-137071910D01*
X123686456Y-137071918D01*
X123666502Y-137299998D01*
X123666502Y-137300001D01*
X123686456Y-137528081D01*
X123686457Y-137528089D01*
X123745714Y-137749238D01*
X123745718Y-137749249D01*
X123806689Y-137880001D01*
X123842477Y-137956749D01*
X123973802Y-138144300D01*
X124135700Y-138306198D01*
X124323251Y-138437523D01*
X124364482Y-138456749D01*
X124530750Y-138534281D01*
X124530752Y-138534281D01*
X124530757Y-138534284D01*
X124751913Y-138593543D01*
X124914832Y-138607796D01*
X124979998Y-138613498D01*
X124980000Y-138613498D01*
X124980002Y-138613498D01*
X125037021Y-138608509D01*
X125208087Y-138593543D01*
X125429243Y-138534284D01*
X125636749Y-138437523D01*
X125824300Y-138306198D01*
X125986198Y-138144300D01*
X126117523Y-137956749D01*
X126162249Y-137860829D01*
X126173535Y-137841432D01*
X126180740Y-137831289D01*
X126596860Y-137021605D01*
X126645010Y-136970980D01*
X126678195Y-136957715D01*
X126812543Y-136925463D01*
X126831746Y-136922422D01*
X126962682Y-136912118D01*
X127003818Y-136908882D01*
X127013543Y-136908500D01*
X127088652Y-136908500D01*
X127155688Y-136928185D01*
X127201443Y-136980989D01*
X127211387Y-137050147D01*
X127190224Y-137103623D01*
X127162480Y-137143246D01*
X127162475Y-137143254D01*
X127065718Y-137350750D01*
X127065714Y-137350761D01*
X127006457Y-137571910D01*
X127006456Y-137571918D01*
X126986502Y-137799998D01*
X126986502Y-137800001D01*
X127006456Y-138028081D01*
X127006457Y-138028089D01*
X127065714Y-138249238D01*
X127065718Y-138249249D01*
X127103020Y-138329243D01*
X127162477Y-138456749D01*
X127293802Y-138644300D01*
X127455700Y-138806198D01*
X127643251Y-138937523D01*
X127768091Y-138995736D01*
X127850750Y-139034281D01*
X127850752Y-139034281D01*
X127850757Y-139034284D01*
X128071913Y-139093543D01*
X128224939Y-139106931D01*
X128299998Y-139113498D01*
X128300000Y-139113498D01*
X128300002Y-139113498D01*
X128375061Y-139106931D01*
X128528087Y-139093543D01*
X128749243Y-139034284D01*
X128956749Y-138937523D01*
X129144300Y-138806198D01*
X129306198Y-138644300D01*
X129437523Y-138456749D01*
X129534284Y-138249243D01*
X129593543Y-138028087D01*
X129613498Y-137800000D01*
X129611469Y-137776813D01*
X129601475Y-137662582D01*
X129593543Y-137571913D01*
X129534284Y-137350757D01*
X129437523Y-137143251D01*
X129409776Y-137103624D01*
X129387448Y-137037418D01*
X129404458Y-136969651D01*
X129455405Y-136921837D01*
X129511350Y-136908500D01*
X131344667Y-136908500D01*
X131411706Y-136928185D01*
X131457461Y-136980989D01*
X131467405Y-137050147D01*
X131446243Y-137103620D01*
X131418494Y-137143251D01*
X131362476Y-137223252D01*
X131362475Y-137223254D01*
X131265718Y-137430750D01*
X131265714Y-137430761D01*
X131206457Y-137651910D01*
X131206456Y-137651918D01*
X131186502Y-137879998D01*
X131186502Y-137880001D01*
X131206456Y-138108081D01*
X131206457Y-138108089D01*
X131265714Y-138329238D01*
X131265718Y-138329249D01*
X131361328Y-138534285D01*
X131362477Y-138536749D01*
X131493802Y-138724300D01*
X131655700Y-138886198D01*
X131843251Y-139017523D01*
X131968091Y-139075736D01*
X132050750Y-139114281D01*
X132050752Y-139114281D01*
X132050757Y-139114284D01*
X132271913Y-139173543D01*
X132434832Y-139187796D01*
X132499998Y-139193498D01*
X132500000Y-139193498D01*
X132500002Y-139193498D01*
X132557021Y-139188509D01*
X132728087Y-139173543D01*
X132949243Y-139114284D01*
X133156749Y-139017523D01*
X133344300Y-138886198D01*
X133506198Y-138724300D01*
X133606511Y-138581038D01*
X133661086Y-138537415D01*
X133730584Y-138530221D01*
X133792939Y-138561744D01*
X133795765Y-138564482D01*
X133795854Y-138564571D01*
X133795855Y-138564573D01*
X133795856Y-138564573D01*
X133844779Y-138613498D01*
X133861314Y-138630033D01*
X133861331Y-138630048D01*
X134170662Y-138939380D01*
X134170789Y-138939495D01*
X134193904Y-138962610D01*
X134381983Y-139106930D01*
X134587290Y-139225467D01*
X134806313Y-139316192D01*
X135035304Y-139377552D01*
X135270345Y-139408498D01*
X135300604Y-139408498D01*
X135300632Y-139408500D01*
X135309259Y-139408500D01*
X145257204Y-139408500D01*
X145257578Y-139408481D01*
X145309535Y-139408482D01*
X145584151Y-139381438D01*
X145854795Y-139327607D01*
X146118859Y-139247508D01*
X146373800Y-139141911D01*
X146617163Y-139011834D01*
X146846605Y-138858530D01*
X147059915Y-138683474D01*
X147095330Y-138648059D01*
X147095345Y-138648046D01*
X147101173Y-138642217D01*
X147101176Y-138642216D01*
X148633164Y-137110226D01*
X148663414Y-137088010D01*
X149663862Y-136565260D01*
X149691620Y-136549641D01*
X149691628Y-136549634D01*
X149692639Y-136548944D01*
X149710207Y-136538934D01*
X149731082Y-136529199D01*
X149776597Y-136507976D01*
X149952681Y-136384681D01*
X150104681Y-136232681D01*
X150227976Y-136056597D01*
X150318822Y-135861777D01*
X150374458Y-135654142D01*
X150393193Y-135440000D01*
X150374458Y-135225858D01*
X150318822Y-135018223D01*
X150227976Y-134823404D01*
X150104681Y-134647319D01*
X150104679Y-134647316D01*
X149952682Y-134495319D01*
X149776601Y-134372026D01*
X149776597Y-134372024D01*
X149728590Y-134349638D01*
X149581777Y-134281178D01*
X149581774Y-134281177D01*
X149581772Y-134281176D01*
X149374144Y-134225542D01*
X149374136Y-134225541D01*
X149160002Y-134206807D01*
X149159998Y-134206807D01*
X148945863Y-134225541D01*
X148945855Y-134225542D01*
X148738227Y-134281176D01*
X148738221Y-134281179D01*
X148543405Y-134372023D01*
X148543403Y-134372024D01*
X148367316Y-134495320D01*
X148215320Y-134647316D01*
X148092024Y-134823402D01*
X148092022Y-134823405D01*
X148053045Y-134906990D01*
X148041281Y-134927055D01*
X148034740Y-134936135D01*
X148034739Y-134936136D01*
X147511986Y-135936585D01*
X147489766Y-135966840D01*
X146017553Y-137439054D01*
X146010403Y-137445664D01*
X145879343Y-137557599D01*
X145863605Y-137569033D01*
X145731715Y-137649853D01*
X145720835Y-137656520D01*
X145703499Y-137665352D01*
X145548786Y-137729435D01*
X145530280Y-137735448D01*
X145367465Y-137774534D01*
X145348246Y-137777578D01*
X145176181Y-137791117D01*
X145166454Y-137791499D01*
X145080494Y-137791499D01*
X145080474Y-137791500D01*
X143190344Y-137791500D01*
X143123305Y-137771815D01*
X143077550Y-137719011D01*
X143067606Y-137649853D01*
X143088768Y-137596377D01*
X143137523Y-137526749D01*
X143234284Y-137319243D01*
X143293543Y-137098087D01*
X143313498Y-136870000D01*
X143311814Y-136850757D01*
X143293543Y-136641918D01*
X143293543Y-136641913D01*
X143234284Y-136420757D01*
X143212267Y-136373542D01*
X143147233Y-136234075D01*
X143137523Y-136213251D01*
X143006198Y-136025700D01*
X142844300Y-135863802D01*
X142656749Y-135732477D01*
X142611116Y-135711198D01*
X142449249Y-135635718D01*
X142449238Y-135635714D01*
X142228089Y-135576457D01*
X142228081Y-135576456D01*
X142000002Y-135556502D01*
X141999998Y-135556502D01*
X141771918Y-135576456D01*
X141771910Y-135576457D01*
X141550761Y-135635714D01*
X141550750Y-135635718D01*
X141343254Y-135732475D01*
X141343252Y-135732476D01*
X141337150Y-135736749D01*
X141155700Y-135863802D01*
X141155698Y-135863803D01*
X141155695Y-135863806D01*
X140993806Y-136025695D01*
X140993803Y-136025698D01*
X140993802Y-136025700D01*
X140932546Y-136113183D01*
X140862476Y-136213252D01*
X140862475Y-136213254D01*
X140765718Y-136420750D01*
X140765714Y-136420761D01*
X140706457Y-136641910D01*
X140706456Y-136641918D01*
X140686502Y-136869998D01*
X140686502Y-136870001D01*
X140706456Y-137098081D01*
X140706457Y-137098089D01*
X140765714Y-137319238D01*
X140765718Y-137319249D01*
X140836899Y-137471897D01*
X140862477Y-137526749D01*
X140911231Y-137596377D01*
X140933558Y-137662582D01*
X140916548Y-137730350D01*
X140865600Y-137778163D01*
X140809656Y-137791500D01*
X140432500Y-137791500D01*
X140365461Y-137771815D01*
X140319706Y-137719011D01*
X140308500Y-137667500D01*
X140308500Y-136021362D01*
X140308499Y-136021345D01*
X140302638Y-135966840D01*
X140301989Y-135960799D01*
X140299234Y-135953413D01*
X140265812Y-135863806D01*
X140250889Y-135823796D01*
X140163261Y-135706739D01*
X140046204Y-135619111D01*
X139909203Y-135568011D01*
X139848654Y-135561500D01*
X139848638Y-135561500D01*
X138151362Y-135561500D01*
X138151345Y-135561500D01*
X138090797Y-135568011D01*
X138090795Y-135568011D01*
X137953795Y-135619111D01*
X137836739Y-135706739D01*
X137749111Y-135823795D01*
X137698011Y-135960795D01*
X137698011Y-135960797D01*
X137691500Y-136021345D01*
X137691500Y-136305805D01*
X137671815Y-136372844D01*
X137619011Y-136418599D01*
X137549853Y-136428543D01*
X137486297Y-136399518D01*
X137455118Y-136358210D01*
X137452992Y-136353651D01*
X137387523Y-136213251D01*
X137256198Y-136025700D01*
X137094300Y-135863802D01*
X136906749Y-135732477D01*
X136906745Y-135732475D01*
X136906744Y-135732474D01*
X136861117Y-135711198D01*
X136843500Y-135701154D01*
X136774790Y-135654142D01*
X135935662Y-135080002D01*
X135788656Y-134979419D01*
X135770996Y-134964762D01*
X135749327Y-134943093D01*
X135749288Y-134943050D01*
X135715230Y-134908992D01*
X135715202Y-134908941D01*
X135678910Y-134872650D01*
X135678911Y-134872650D01*
X135574400Y-134768141D01*
X135570493Y-134764935D01*
X135345900Y-134580619D01*
X135345893Y-134580614D01*
X135278527Y-134535603D01*
X135233722Y-134481991D01*
X135225013Y-134412666D01*
X135255168Y-134349638D01*
X135314610Y-134312919D01*
X135347417Y-134308500D01*
X144140878Y-134308500D01*
X144141427Y-134308472D01*
X144273391Y-134308474D01*
X144708306Y-134274249D01*
X145139195Y-134206006D01*
X145563401Y-134104166D01*
X145978309Y-133969357D01*
X146381361Y-133802411D01*
X146770073Y-133604356D01*
X147142046Y-133376414D01*
X147494990Y-133119989D01*
X147752567Y-132900001D01*
X150466807Y-132900001D01*
X150485541Y-133114136D01*
X150485542Y-133114144D01*
X150541176Y-133321772D01*
X150541177Y-133321774D01*
X150541178Y-133321777D01*
X150600619Y-133449249D01*
X150632024Y-133516597D01*
X150632026Y-133516601D01*
X150755319Y-133692682D01*
X150907317Y-133844680D01*
X151083398Y-133967973D01*
X151083400Y-133967974D01*
X151083403Y-133967976D01*
X151278223Y-134058822D01*
X151485858Y-134114458D01*
X151638816Y-134127840D01*
X151699998Y-134133193D01*
X151700000Y-134133193D01*
X151700002Y-134133193D01*
X151753535Y-134128509D01*
X151914142Y-134114458D01*
X152121777Y-134058822D01*
X152316597Y-133967976D01*
X152492681Y-133844681D01*
X152644681Y-133692681D01*
X152767976Y-133516597D01*
X152858822Y-133321777D01*
X152914458Y-133114142D01*
X152933193Y-132900000D01*
X152933126Y-132899238D01*
X152921987Y-132771913D01*
X152914458Y-132685858D01*
X152858822Y-132478223D01*
X152767976Y-132283404D01*
X152644681Y-132107319D01*
X152644679Y-132107316D01*
X152492682Y-131955319D01*
X152316601Y-131832026D01*
X152316597Y-131832024D01*
X152233450Y-131793252D01*
X152121777Y-131741178D01*
X152121774Y-131741177D01*
X152121772Y-131741176D01*
X151914144Y-131685542D01*
X151914136Y-131685541D01*
X151700002Y-131666807D01*
X151699998Y-131666807D01*
X151485863Y-131685541D01*
X151485855Y-131685542D01*
X151278227Y-131741176D01*
X151278221Y-131741179D01*
X151083405Y-131832023D01*
X151083403Y-131832024D01*
X150907316Y-131955320D01*
X150755320Y-132107316D01*
X150632024Y-132283403D01*
X150632023Y-132283405D01*
X150578538Y-132398104D01*
X150549677Y-132459998D01*
X150541179Y-132478221D01*
X150541176Y-132478227D01*
X150485542Y-132685855D01*
X150485541Y-132685863D01*
X150466807Y-132899998D01*
X150466807Y-132900001D01*
X147752567Y-132900001D01*
X147826726Y-132836664D01*
X147914458Y-132748931D01*
X147914463Y-132748928D01*
X147924663Y-132738727D01*
X147924665Y-132738727D01*
X148633164Y-132030226D01*
X148663414Y-132008010D01*
X149663862Y-131485260D01*
X149691620Y-131469641D01*
X149691628Y-131469634D01*
X149692639Y-131468944D01*
X149710207Y-131458934D01*
X149731082Y-131449199D01*
X149776597Y-131427976D01*
X149952681Y-131304681D01*
X150104681Y-131152681D01*
X150227976Y-130976597D01*
X150318822Y-130781777D01*
X150374458Y-130574142D01*
X150393193Y-130360000D01*
X150374458Y-130145858D01*
X150318822Y-129938223D01*
X150227976Y-129743404D01*
X150104681Y-129567319D01*
X150104679Y-129567316D01*
X149952682Y-129415319D01*
X149776601Y-129292026D01*
X149776597Y-129292024D01*
X149686476Y-129250000D01*
X149581777Y-129201178D01*
X149581774Y-129201177D01*
X149581772Y-129201176D01*
X149374144Y-129145542D01*
X149374136Y-129145541D01*
X149160002Y-129126807D01*
X149159998Y-129126807D01*
X148945863Y-129145541D01*
X148945855Y-129145542D01*
X148738227Y-129201176D01*
X148738221Y-129201179D01*
X148543405Y-129292023D01*
X148543403Y-129292024D01*
X148367316Y-129415320D01*
X148215320Y-129567316D01*
X148092024Y-129743402D01*
X148092022Y-129743405D01*
X148053045Y-129826990D01*
X148041281Y-129847055D01*
X148034740Y-129856135D01*
X148034739Y-129856136D01*
X147511986Y-130856585D01*
X147489766Y-130886840D01*
X146841333Y-131535275D01*
X146841309Y-131535299D01*
X146839473Y-131537134D01*
X146835588Y-131540852D01*
X146588494Y-131767268D01*
X146580208Y-131774221D01*
X146316464Y-131976597D01*
X146307602Y-131982802D01*
X146027232Y-132161414D01*
X146017864Y-132166823D01*
X145722977Y-132320329D01*
X145713173Y-132324900D01*
X145406049Y-132452112D01*
X145395884Y-132455812D01*
X145078833Y-132555776D01*
X145068384Y-132558576D01*
X144743819Y-132630528D01*
X144733165Y-132632406D01*
X144403581Y-132675793D01*
X144392805Y-132676736D01*
X144057328Y-132691382D01*
X144051920Y-132691500D01*
X126661194Y-132691500D01*
X126594155Y-132671815D01*
X126577871Y-132659333D01*
X126229506Y-132343252D01*
X125918981Y-132061504D01*
X125886505Y-132034391D01*
X125886506Y-132034391D01*
X125882124Y-132030733D01*
X125882408Y-132030392D01*
X125873309Y-132022811D01*
X125844304Y-131993806D01*
X125844300Y-131993802D01*
X125656749Y-131862477D01*
X125656745Y-131862475D01*
X125449249Y-131765718D01*
X125449238Y-131765714D01*
X125228089Y-131706457D01*
X125228081Y-131706456D01*
X125000002Y-131686502D01*
X124999998Y-131686502D01*
X124771918Y-131706456D01*
X124771910Y-131706457D01*
X124550761Y-131765714D01*
X124550750Y-131765718D01*
X124343254Y-131862475D01*
X124343252Y-131862476D01*
X124343251Y-131862477D01*
X124155700Y-131993802D01*
X124155698Y-131993803D01*
X124155695Y-131993806D01*
X123993806Y-132155695D01*
X123862476Y-132343252D01*
X123862475Y-132343254D01*
X123765718Y-132550750D01*
X123765714Y-132550761D01*
X123706457Y-132771910D01*
X123706456Y-132771918D01*
X123686502Y-132999998D01*
X123686502Y-133000001D01*
X123706456Y-133228081D01*
X123706457Y-133228089D01*
X123765714Y-133449238D01*
X123765718Y-133449249D01*
X123849269Y-133628425D01*
X123862477Y-133656749D01*
X123960246Y-133796378D01*
X123982573Y-133862582D01*
X123965563Y-133930350D01*
X123914615Y-133978163D01*
X123858671Y-133991500D01*
X117767464Y-133991500D01*
X117767419Y-133991498D01*
X117761865Y-133991498D01*
X117756390Y-133991498D01*
X117673285Y-133991499D01*
X117663557Y-133991117D01*
X117523035Y-133980060D01*
X117503816Y-133977016D01*
X117371512Y-133945254D01*
X117353007Y-133939242D01*
X117274162Y-133906585D01*
X117227287Y-133887169D01*
X117209956Y-133878339D01*
X117093941Y-133807246D01*
X117078199Y-133795810D01*
X116971194Y-133704419D01*
X116964045Y-133697810D01*
X116745233Y-133478998D01*
X116730576Y-133461338D01*
X116722305Y-133449249D01*
X116008842Y-132406495D01*
X115998803Y-132388888D01*
X115977523Y-132343251D01*
X115846198Y-132155700D01*
X115814255Y-132123757D01*
X115809707Y-132118765D01*
X115809656Y-132118812D01*
X115807566Y-132116532D01*
X115798232Y-132107316D01*
X115765231Y-132074730D01*
X115764675Y-132074177D01*
X115684304Y-131993806D01*
X115684300Y-131993802D01*
X115496749Y-131862477D01*
X115496745Y-131862475D01*
X115289249Y-131765718D01*
X115289238Y-131765714D01*
X115068089Y-131706457D01*
X115068081Y-131706456D01*
X114840002Y-131686502D01*
X114839998Y-131686502D01*
X114611918Y-131706456D01*
X114611910Y-131706457D01*
X114390761Y-131765714D01*
X114390750Y-131765718D01*
X114183254Y-131862475D01*
X114183252Y-131862476D01*
X114183251Y-131862477D01*
X113995700Y-131993802D01*
X113995698Y-131993803D01*
X113995695Y-131993806D01*
X113833806Y-132155695D01*
X113702476Y-132343252D01*
X113702475Y-132343254D01*
X113605718Y-132550750D01*
X113605714Y-132550761D01*
X113546457Y-132771910D01*
X113546456Y-132771918D01*
X113526502Y-132999998D01*
X113526502Y-133000001D01*
X110287300Y-133000001D01*
X110334284Y-132899243D01*
X110393543Y-132678087D01*
X110413498Y-132450000D01*
X110393543Y-132221913D01*
X110334284Y-132000757D01*
X110332543Y-131997024D01*
X110255603Y-131832024D01*
X110237523Y-131793251D01*
X110106198Y-131605700D01*
X109944300Y-131443802D01*
X109756749Y-131312477D01*
X109756745Y-131312475D01*
X109549249Y-131215718D01*
X109549238Y-131215714D01*
X109328089Y-131156457D01*
X109328081Y-131156456D01*
X109100002Y-131136502D01*
X109099998Y-131136502D01*
X108871918Y-131156456D01*
X108871910Y-131156457D01*
X108650761Y-131215714D01*
X108650750Y-131215718D01*
X108443254Y-131312475D01*
X108443252Y-131312476D01*
X108443251Y-131312477D01*
X108255700Y-131443802D01*
X108255698Y-131443803D01*
X108255695Y-131443806D01*
X108093806Y-131605695D01*
X108093803Y-131605698D01*
X108093802Y-131605700D01*
X108037897Y-131685541D01*
X107962476Y-131793252D01*
X107962475Y-131793254D01*
X107865718Y-132000750D01*
X107865714Y-132000761D01*
X107806457Y-132221910D01*
X107806456Y-132221918D01*
X107786502Y-132449998D01*
X107786502Y-132450001D01*
X106682776Y-132450001D01*
X106668201Y-132283404D01*
X106663086Y-132224941D01*
X106607316Y-132016803D01*
X106602018Y-131997031D01*
X106602017Y-131997030D01*
X106602016Y-131997024D01*
X106502296Y-131783175D01*
X106502294Y-131783172D01*
X106502293Y-131783170D01*
X106366956Y-131589888D01*
X106200111Y-131423044D01*
X106200105Y-131423039D01*
X106042204Y-131312476D01*
X106012353Y-131291574D01*
X105968729Y-131236998D01*
X105961535Y-131167500D01*
X105993058Y-131105145D01*
X106012354Y-131088425D01*
X106200110Y-130956957D01*
X106366957Y-130790110D01*
X106502296Y-130596826D01*
X106602016Y-130382976D01*
X106663086Y-130155059D01*
X106683651Y-129920000D01*
X106681815Y-129899020D01*
X106669320Y-129756198D01*
X106663086Y-129684941D01*
X106607658Y-129478081D01*
X106602018Y-129457031D01*
X106602017Y-129457030D01*
X106602016Y-129457024D01*
X106502296Y-129243175D01*
X106502294Y-129243172D01*
X106502293Y-129243170D01*
X106366956Y-129049888D01*
X106200111Y-128883044D01*
X106200105Y-128883039D01*
X106021390Y-128757902D01*
X106012353Y-128751574D01*
X106011096Y-128750001D01*
X113526502Y-128750001D01*
X113546456Y-128978081D01*
X113546457Y-128978089D01*
X113605714Y-129199238D01*
X113605718Y-129199249D01*
X113690141Y-129380294D01*
X113702477Y-129406749D01*
X113833802Y-129594300D01*
X113995700Y-129756198D01*
X114183251Y-129887523D01*
X114252899Y-129920000D01*
X114390750Y-129984281D01*
X114390752Y-129984281D01*
X114390757Y-129984284D01*
X114611913Y-130043543D01*
X114774832Y-130057796D01*
X114839998Y-130063498D01*
X114840000Y-130063498D01*
X114840002Y-130063498D01*
X114897021Y-130058509D01*
X115068087Y-130043543D01*
X115289243Y-129984284D01*
X115496749Y-129887523D01*
X115684300Y-129756198D01*
X115846198Y-129594300D01*
X115977523Y-129406749D01*
X116074284Y-129199243D01*
X116133543Y-128978087D01*
X116153498Y-128750000D01*
X116133543Y-128521913D01*
X116074284Y-128300757D01*
X116047727Y-128243806D01*
X116012956Y-128169238D01*
X115977523Y-128093251D01*
X115846198Y-127905700D01*
X115684300Y-127743802D01*
X115496749Y-127612477D01*
X115496745Y-127612475D01*
X115289249Y-127515718D01*
X115289238Y-127515714D01*
X115068089Y-127456457D01*
X115068081Y-127456456D01*
X114840002Y-127436502D01*
X114839998Y-127436502D01*
X114611918Y-127456456D01*
X114611910Y-127456457D01*
X114390761Y-127515714D01*
X114390750Y-127515718D01*
X114183254Y-127612475D01*
X114183252Y-127612476D01*
X114179556Y-127615064D01*
X113995700Y-127743802D01*
X113995698Y-127743803D01*
X113995695Y-127743806D01*
X113833806Y-127905695D01*
X113833803Y-127905698D01*
X113833802Y-127905700D01*
X113768395Y-127999111D01*
X113702476Y-128093252D01*
X113702475Y-128093254D01*
X113605718Y-128300750D01*
X113605714Y-128300761D01*
X113546457Y-128521910D01*
X113546456Y-128521918D01*
X113526502Y-128749998D01*
X113526502Y-128750001D01*
X106011096Y-128750001D01*
X105968729Y-128696998D01*
X105961535Y-128627500D01*
X105993058Y-128565145D01*
X106012354Y-128548425D01*
X106033135Y-128533874D01*
X106200110Y-128416957D01*
X106366957Y-128250110D01*
X106502296Y-128056826D01*
X106602016Y-127842976D01*
X106663086Y-127615059D01*
X106683651Y-127380000D01*
X106663086Y-127144941D01*
X106602016Y-126917024D01*
X106502296Y-126703175D01*
X106502294Y-126703172D01*
X106502293Y-126703170D01*
X106366956Y-126509888D01*
X106200111Y-126343044D01*
X106200110Y-126343043D01*
X106006826Y-126207704D01*
X106004944Y-126206386D01*
X105961320Y-126151809D01*
X105954127Y-126082310D01*
X105985649Y-126019956D01*
X106004945Y-126003236D01*
X106084193Y-125947746D01*
X105508399Y-125371952D01*
X105546152Y-125361837D01*
X105673848Y-125288111D01*
X105778111Y-125183848D01*
X105851837Y-125056152D01*
X105861952Y-125018399D01*
X106437746Y-125594193D01*
X106494902Y-125512566D01*
X106494906Y-125512560D01*
X106593996Y-125300059D01*
X106593999Y-125300053D01*
X106654683Y-125073578D01*
X106654684Y-125073571D01*
X106668120Y-124920001D01*
X110686502Y-124920001D01*
X110706456Y-125148081D01*
X110706457Y-125148089D01*
X110765714Y-125369238D01*
X110765718Y-125369249D01*
X110862475Y-125576745D01*
X110862477Y-125576749D01*
X110993802Y-125764300D01*
X111155700Y-125926198D01*
X111343251Y-126057523D01*
X111451466Y-126107984D01*
X111550750Y-126154281D01*
X111550752Y-126154281D01*
X111550757Y-126154284D01*
X111771913Y-126213543D01*
X111934832Y-126227796D01*
X111999998Y-126233498D01*
X112000000Y-126233498D01*
X112000002Y-126233498D01*
X112061917Y-126228081D01*
X112228087Y-126213543D01*
X112449243Y-126154284D01*
X112496390Y-126132298D01*
X112513281Y-126125875D01*
X112532770Y-126120051D01*
X112792305Y-126000001D01*
X115686502Y-126000001D01*
X115706456Y-126228081D01*
X115706457Y-126228089D01*
X115765714Y-126449238D01*
X115765718Y-126449249D01*
X115862475Y-126656745D01*
X115862477Y-126656749D01*
X115993802Y-126844300D01*
X116155700Y-127006198D01*
X116343251Y-127137523D01*
X116457421Y-127190761D01*
X116550750Y-127234281D01*
X116550752Y-127234281D01*
X116550757Y-127234284D01*
X116771913Y-127293543D01*
X116934832Y-127307796D01*
X116999998Y-127313498D01*
X117000000Y-127313498D01*
X117000002Y-127313498D01*
X117057021Y-127308509D01*
X117228087Y-127293543D01*
X117449243Y-127234284D01*
X117656749Y-127137523D01*
X117844300Y-127006198D01*
X118006198Y-126844300D01*
X118137523Y-126656749D01*
X118234284Y-126449243D01*
X118293543Y-126228087D01*
X118311752Y-126019956D01*
X118313498Y-126000001D01*
X118313498Y-125999998D01*
X118298931Y-125833498D01*
X118293543Y-125771913D01*
X118234284Y-125550757D01*
X118216475Y-125512566D01*
X118163985Y-125400000D01*
X118137523Y-125343251D01*
X118006198Y-125155700D01*
X117844300Y-124993802D01*
X117656749Y-124862477D01*
X117642529Y-124855846D01*
X117449249Y-124765718D01*
X117449238Y-124765714D01*
X117228089Y-124706457D01*
X117228081Y-124706456D01*
X117000002Y-124686502D01*
X116999998Y-124686502D01*
X116771918Y-124706456D01*
X116771910Y-124706457D01*
X116550761Y-124765714D01*
X116550750Y-124765718D01*
X116343254Y-124862475D01*
X116343252Y-124862476D01*
X116289663Y-124900000D01*
X116155700Y-124993802D01*
X116155698Y-124993803D01*
X116155695Y-124993806D01*
X115993806Y-125155695D01*
X115993803Y-125155698D01*
X115993802Y-125155700D01*
X115870471Y-125331835D01*
X115862478Y-125343250D01*
X115862475Y-125343254D01*
X115765718Y-125550750D01*
X115765714Y-125550761D01*
X115706457Y-125771910D01*
X115706456Y-125771918D01*
X115686502Y-125999998D01*
X115686502Y-126000001D01*
X112792305Y-126000001D01*
X113896303Y-125489339D01*
X113927048Y-125473462D01*
X113936477Y-125469085D01*
X113953800Y-125461911D01*
X114197163Y-125331834D01*
X114426605Y-125178530D01*
X114639915Y-125003474D01*
X114675330Y-124968059D01*
X114675345Y-124968046D01*
X114681173Y-124962217D01*
X114681176Y-124962216D01*
X114949582Y-124693808D01*
X114949643Y-124693775D01*
X114985928Y-124657489D01*
X114985929Y-124657490D01*
X115083490Y-124559927D01*
X115258547Y-124346615D01*
X115411852Y-124117172D01*
X115541930Y-123873807D01*
X115647527Y-123618865D01*
X115727627Y-123354799D01*
X115781458Y-123084154D01*
X115808502Y-122809535D01*
X115808500Y-122671562D01*
X115808500Y-122652429D01*
X115808500Y-117162173D01*
X115828185Y-117095134D01*
X115880989Y-117049379D01*
X115950147Y-117039435D01*
X116013703Y-117068460D01*
X116049921Y-117122322D01*
X116164934Y-117461215D01*
X116184922Y-117520111D01*
X116191500Y-117559961D01*
X116191500Y-118750693D01*
X116191506Y-118750814D01*
X116191506Y-118870829D01*
X116193908Y-118901345D01*
X116223803Y-119281203D01*
X116288199Y-119687783D01*
X116374003Y-120045183D01*
X116384299Y-120088069D01*
X116511499Y-120479553D01*
X116608966Y-120714860D01*
X116669032Y-120859872D01*
X116855916Y-121226654D01*
X116855923Y-121226666D01*
X116855925Y-121226669D01*
X117070993Y-121577630D01*
X117071015Y-121577662D01*
X117312954Y-121910665D01*
X117312975Y-121910692D01*
X117580287Y-122223675D01*
X117580297Y-122223686D01*
X117580304Y-122223694D01*
X117580311Y-122223701D01*
X117664149Y-122307539D01*
X117664164Y-122307556D01*
X117669536Y-122312928D01*
X117669537Y-122312929D01*
X117776954Y-122420346D01*
X117801379Y-122444771D01*
X117805121Y-122448679D01*
X118028682Y-122692655D01*
X118035635Y-122700942D01*
X118235415Y-122961300D01*
X118241620Y-122970161D01*
X118417958Y-123246959D01*
X118423366Y-123256327D01*
X118574902Y-123547426D01*
X118579474Y-123557231D01*
X118705060Y-123860430D01*
X118708760Y-123870594D01*
X118756648Y-124022475D01*
X118802355Y-124167442D01*
X118807447Y-124183589D01*
X118810247Y-124194040D01*
X118881278Y-124514454D01*
X118883156Y-124525107D01*
X118925988Y-124850475D01*
X118926931Y-124861251D01*
X118941382Y-125192272D01*
X118941500Y-125197680D01*
X118941500Y-126857645D01*
X118941496Y-126857658D01*
X118941496Y-127112013D01*
X118976882Y-127516472D01*
X119034071Y-127840795D01*
X119047385Y-127916303D01*
X119055902Y-127948089D01*
X119152462Y-128308460D01*
X119152465Y-128308470D01*
X119152466Y-128308471D01*
X119291328Y-128689988D01*
X119291331Y-128689995D01*
X119291332Y-128689997D01*
X119291335Y-128690005D01*
X119462907Y-129057941D01*
X119462915Y-129057957D01*
X119562972Y-129231259D01*
X119665914Y-129409559D01*
X119665918Y-129409565D01*
X119665925Y-129409576D01*
X119898787Y-129742138D01*
X120048032Y-129920001D01*
X120151696Y-130043543D01*
X120159762Y-130053155D01*
X120303302Y-130196695D01*
X120303303Y-130196695D01*
X120303304Y-130196696D01*
X120363392Y-130256783D01*
X120363394Y-130256784D01*
X120367826Y-130261216D01*
X120368336Y-130261675D01*
X120380067Y-130273407D01*
X120399591Y-130292932D01*
X120399602Y-130292941D01*
X120610082Y-130465690D01*
X120610086Y-130465693D01*
X120610096Y-130465701D01*
X120836522Y-130617005D01*
X120956605Y-130681195D01*
X121076681Y-130745382D01*
X121076683Y-130745382D01*
X121076689Y-130745386D01*
X121328283Y-130849607D01*
X121588882Y-130928666D01*
X121855974Y-130981800D01*
X122126989Y-131008498D01*
X122173528Y-131008498D01*
X122173552Y-131008500D01*
X122183536Y-131008500D01*
X122263152Y-131008500D01*
X122348129Y-131008501D01*
X122348134Y-131008500D01*
X126780962Y-131008500D01*
X126860596Y-131008500D01*
X126866662Y-131008500D01*
X126867036Y-131008481D01*
X127041680Y-131008482D01*
X127562163Y-130977001D01*
X128079796Y-130914151D01*
X128592689Y-130820161D01*
X129098972Y-130695376D01*
X129098976Y-130695374D01*
X129098979Y-130695374D01*
X129190519Y-130666848D01*
X129596797Y-130540249D01*
X130084347Y-130355347D01*
X130559844Y-130141345D01*
X130641185Y-130098654D01*
X134941500Y-130098654D01*
X134948011Y-130159202D01*
X134948011Y-130159204D01*
X134984443Y-130256879D01*
X134999111Y-130296204D01*
X135086739Y-130413261D01*
X135203796Y-130500889D01*
X135340799Y-130551989D01*
X135368050Y-130554918D01*
X135401345Y-130558499D01*
X135401362Y-130558500D01*
X137098638Y-130558500D01*
X137098654Y-130558499D01*
X137125692Y-130555591D01*
X137159201Y-130551989D01*
X137296204Y-130500889D01*
X137413261Y-130413261D01*
X137500889Y-130296204D01*
X137551989Y-130159201D01*
X137555591Y-130125692D01*
X137558499Y-130098654D01*
X137558500Y-130098637D01*
X137558500Y-129814194D01*
X137578185Y-129747155D01*
X137630989Y-129701400D01*
X137700147Y-129691456D01*
X137763703Y-129720481D01*
X137794881Y-129761789D01*
X137862477Y-129906749D01*
X137993802Y-130094300D01*
X138155700Y-130256198D01*
X138343251Y-130387523D01*
X138398445Y-130413260D01*
X138550750Y-130484281D01*
X138550752Y-130484281D01*
X138550757Y-130484284D01*
X138771913Y-130543543D01*
X138934832Y-130557796D01*
X138999998Y-130563498D01*
X139000000Y-130563498D01*
X139000002Y-130563498D01*
X139057139Y-130558499D01*
X139228087Y-130543543D01*
X139449243Y-130484284D01*
X139656749Y-130387523D01*
X139844300Y-130256198D01*
X140006198Y-130094300D01*
X140137523Y-129906749D01*
X140234284Y-129699243D01*
X140293543Y-129478087D01*
X140313498Y-129250001D01*
X140686502Y-129250001D01*
X140706456Y-129478081D01*
X140706457Y-129478089D01*
X140765714Y-129699238D01*
X140765718Y-129699249D01*
X140819318Y-129814194D01*
X140862477Y-129906749D01*
X140993802Y-130094300D01*
X141155700Y-130256198D01*
X141343251Y-130387523D01*
X141398445Y-130413260D01*
X141550750Y-130484281D01*
X141550752Y-130484281D01*
X141550757Y-130484284D01*
X141771913Y-130543543D01*
X141934832Y-130557796D01*
X141999998Y-130563498D01*
X142000000Y-130563498D01*
X142000002Y-130563498D01*
X142057139Y-130558499D01*
X142228087Y-130543543D01*
X142449243Y-130484284D01*
X142656749Y-130387523D01*
X142844300Y-130256198D01*
X143006198Y-130094300D01*
X143137523Y-129906749D01*
X143234284Y-129699243D01*
X143293543Y-129478087D01*
X143313498Y-129250000D01*
X143312900Y-129243170D01*
X143302720Y-129126807D01*
X143293543Y-129021913D01*
X143234284Y-128800757D01*
X143229074Y-128789585D01*
X143180681Y-128685805D01*
X143137523Y-128593251D01*
X143006198Y-128405700D01*
X142844300Y-128243802D01*
X142656749Y-128112477D01*
X142615521Y-128093252D01*
X142449249Y-128015718D01*
X142449238Y-128015714D01*
X142228089Y-127956457D01*
X142228081Y-127956456D01*
X142000002Y-127936502D01*
X141999998Y-127936502D01*
X141771918Y-127956456D01*
X141771910Y-127956457D01*
X141550761Y-128015714D01*
X141550750Y-128015718D01*
X141343254Y-128112475D01*
X141343252Y-128112476D01*
X141343251Y-128112477D01*
X141155700Y-128243802D01*
X141155698Y-128243803D01*
X141155695Y-128243806D01*
X140993806Y-128405695D01*
X140993803Y-128405698D01*
X140993802Y-128405700D01*
X140985920Y-128416957D01*
X140862476Y-128593252D01*
X140862475Y-128593254D01*
X140765718Y-128800750D01*
X140765714Y-128800761D01*
X140706457Y-129021910D01*
X140706456Y-129021918D01*
X140686502Y-129249998D01*
X140686502Y-129250001D01*
X140313498Y-129250001D01*
X140313498Y-129250000D01*
X140312900Y-129243170D01*
X140302720Y-129126807D01*
X140293543Y-129021913D01*
X140234284Y-128800757D01*
X140229074Y-128789585D01*
X140180681Y-128685805D01*
X140137523Y-128593251D01*
X140006198Y-128405700D01*
X139844300Y-128243802D01*
X139656749Y-128112477D01*
X139615521Y-128093252D01*
X139449249Y-128015718D01*
X139449238Y-128015714D01*
X139228089Y-127956457D01*
X139228081Y-127956456D01*
X139000002Y-127936502D01*
X138999998Y-127936502D01*
X138771918Y-127956456D01*
X138771910Y-127956457D01*
X138550761Y-128015714D01*
X138550750Y-128015718D01*
X138343254Y-128112475D01*
X138343252Y-128112476D01*
X138343251Y-128112477D01*
X138155700Y-128243802D01*
X138155698Y-128243803D01*
X138155695Y-128243806D01*
X137993806Y-128405695D01*
X137993803Y-128405698D01*
X137993802Y-128405700D01*
X137985920Y-128416957D01*
X137862477Y-128593251D01*
X137794882Y-128738210D01*
X137748710Y-128790649D01*
X137681516Y-128809801D01*
X137614635Y-128789585D01*
X137569301Y-128736420D01*
X137558500Y-128685805D01*
X137558500Y-128401362D01*
X137558499Y-128401345D01*
X137555157Y-128370270D01*
X137551989Y-128340799D01*
X137551137Y-128338515D01*
X137515812Y-128243806D01*
X137500889Y-128203796D01*
X137413261Y-128086739D01*
X137296204Y-127999111D01*
X137159203Y-127948011D01*
X137098654Y-127941500D01*
X137098638Y-127941500D01*
X135401362Y-127941500D01*
X135401345Y-127941500D01*
X135340797Y-127948011D01*
X135340795Y-127948011D01*
X135203795Y-127999111D01*
X135086739Y-128086739D01*
X134999111Y-128203795D01*
X134948011Y-128340795D01*
X134948011Y-128340797D01*
X134941500Y-128401345D01*
X134941500Y-130098654D01*
X130641185Y-130098654D01*
X131021552Y-129899023D01*
X131467786Y-129629267D01*
X131690494Y-129475541D01*
X131713808Y-129462898D01*
X132990422Y-128938542D01*
X133040883Y-128914528D01*
X133041267Y-128914241D01*
X133063053Y-128901213D01*
X133156749Y-128857523D01*
X133344300Y-128726198D01*
X133506198Y-128564300D01*
X133637523Y-128376749D01*
X133734284Y-128169243D01*
X133793543Y-127948087D01*
X133813498Y-127720000D01*
X133793543Y-127491913D01*
X133734284Y-127270757D01*
X133717276Y-127234284D01*
X133695736Y-127188091D01*
X133637523Y-127063251D01*
X133506198Y-126875700D01*
X133344300Y-126713802D01*
X133156749Y-126582477D01*
X133156745Y-126582475D01*
X132949249Y-126485718D01*
X132949238Y-126485714D01*
X132728089Y-126426457D01*
X132728081Y-126426456D01*
X132500002Y-126406502D01*
X132499998Y-126406502D01*
X132271918Y-126426456D01*
X132271910Y-126426457D01*
X132050761Y-126485714D01*
X132050750Y-126485718D01*
X131843254Y-126582475D01*
X131843252Y-126582476D01*
X131843251Y-126582477D01*
X131655700Y-126713802D01*
X131655698Y-126713803D01*
X131655695Y-126713806D01*
X131493806Y-126875695D01*
X131493803Y-126875698D01*
X131493802Y-126875700D01*
X131464868Y-126917022D01*
X131362476Y-127063251D01*
X131326033Y-127141404D01*
X131313781Y-127161290D01*
X131314029Y-127161459D01*
X131311543Y-127165115D01*
X130743450Y-128144836D01*
X130706899Y-128184491D01*
X130575158Y-128275961D01*
X130567711Y-128280747D01*
X130144893Y-128531615D01*
X130137124Y-128535857D01*
X129697491Y-128755920D01*
X129689439Y-128759597D01*
X129235240Y-128947731D01*
X129226947Y-128950825D01*
X129027929Y-129017064D01*
X128958104Y-129019557D01*
X128898015Y-128983905D01*
X128866740Y-128921425D01*
X128874209Y-128851956D01*
X128918050Y-128797553D01*
X128936357Y-128787031D01*
X128956749Y-128777523D01*
X129144300Y-128646198D01*
X129306198Y-128484300D01*
X129437523Y-128296749D01*
X129534284Y-128089243D01*
X129593543Y-127868087D01*
X129613498Y-127640000D01*
X129611315Y-127615053D01*
X129602625Y-127515718D01*
X129593543Y-127411913D01*
X129534284Y-127190757D01*
X129520543Y-127161290D01*
X129437524Y-126983254D01*
X129437523Y-126983252D01*
X129437523Y-126983251D01*
X129306198Y-126795700D01*
X129144300Y-126633802D01*
X128956749Y-126502477D01*
X128956745Y-126502475D01*
X128749249Y-126405718D01*
X128749238Y-126405714D01*
X128528089Y-126346457D01*
X128528081Y-126346456D01*
X128300002Y-126326502D01*
X128299998Y-126326502D01*
X128071918Y-126346456D01*
X128071910Y-126346457D01*
X127850761Y-126405714D01*
X127850750Y-126405718D01*
X127643254Y-126502475D01*
X127643252Y-126502476D01*
X127643251Y-126502477D01*
X127455700Y-126633802D01*
X127455698Y-126633803D01*
X127455695Y-126633806D01*
X127293806Y-126795695D01*
X127293803Y-126795698D01*
X127293802Y-126795700D01*
X127237789Y-126875695D01*
X127162476Y-126983252D01*
X127162475Y-126983254D01*
X127065718Y-127190750D01*
X127065714Y-127190761D01*
X127006457Y-127411910D01*
X127006456Y-127411918D01*
X126986502Y-127639998D01*
X126986502Y-127640001D01*
X127006456Y-127868081D01*
X127006457Y-127868089D01*
X127065714Y-128089238D01*
X127065718Y-128089249D01*
X127137789Y-128243806D01*
X127162477Y-128296749D01*
X127293802Y-128484300D01*
X127455700Y-128646198D01*
X127643251Y-128777523D01*
X127712472Y-128809801D01*
X127850750Y-128874281D01*
X127850752Y-128874281D01*
X127850757Y-128874284D01*
X128071913Y-128933543D01*
X128234083Y-128947731D01*
X128299998Y-128953498D01*
X128300000Y-128953498D01*
X128396440Y-128945060D01*
X128464938Y-128958826D01*
X128515121Y-129007441D01*
X128531055Y-129075470D01*
X128507680Y-129141313D01*
X128452418Y-129184067D01*
X128437912Y-129188736D01*
X128275605Y-129230162D01*
X128266955Y-129232044D01*
X127783130Y-129319334D01*
X127774368Y-129320594D01*
X127285541Y-129373146D01*
X127276712Y-129373777D01*
X126833141Y-129389617D01*
X126782649Y-129391421D01*
X126778226Y-129391500D01*
X126432500Y-129391500D01*
X126365461Y-129371815D01*
X126319706Y-129319011D01*
X126308500Y-129267500D01*
X126308500Y-127901362D01*
X126308499Y-127901345D01*
X126304922Y-127868081D01*
X126301989Y-127840799D01*
X126282778Y-127789294D01*
X126265812Y-127743806D01*
X126250889Y-127703796D01*
X126163261Y-127586739D01*
X126046204Y-127499111D01*
X126026898Y-127491910D01*
X125909203Y-127448011D01*
X125848654Y-127441500D01*
X125848638Y-127441500D01*
X124151362Y-127441500D01*
X124151345Y-127441500D01*
X124090797Y-127448011D01*
X124090795Y-127448011D01*
X123953795Y-127499111D01*
X123836739Y-127586739D01*
X123749111Y-127703795D01*
X123698011Y-127840795D01*
X123698011Y-127840797D01*
X123691500Y-127901345D01*
X123691500Y-129267500D01*
X123671815Y-129334539D01*
X123619011Y-129380294D01*
X123567500Y-129391500D01*
X122268058Y-129391500D01*
X122258328Y-129391118D01*
X122226566Y-129388617D01*
X122092281Y-129378046D01*
X122073063Y-129375001D01*
X121915874Y-129337260D01*
X121897368Y-129331247D01*
X121748005Y-129269374D01*
X121730668Y-129260539D01*
X121613504Y-129188736D01*
X121592837Y-129176070D01*
X121577097Y-129164634D01*
X121452517Y-129058226D01*
X121441178Y-129047215D01*
X121250937Y-128837318D01*
X121243217Y-128827912D01*
X121229785Y-128809801D01*
X121073189Y-128598655D01*
X121066431Y-128588540D01*
X121052408Y-128565145D01*
X120919703Y-128343741D01*
X120913968Y-128333012D01*
X120902356Y-128308460D01*
X120791928Y-128074979D01*
X120787284Y-128063765D01*
X120691124Y-127795019D01*
X120687599Y-127783399D01*
X120644150Y-127609942D01*
X120618246Y-127506524D01*
X120615872Y-127494590D01*
X120582668Y-127270750D01*
X120573992Y-127212268D01*
X120572800Y-127200162D01*
X120571078Y-127165119D01*
X120558649Y-126912120D01*
X120558500Y-126906035D01*
X120558500Y-125108777D01*
X120558481Y-125108407D01*
X120558481Y-125081215D01*
X120558483Y-124978335D01*
X120524558Y-124547237D01*
X120520245Y-124520001D01*
X121026502Y-124520001D01*
X121046456Y-124748081D01*
X121046457Y-124748089D01*
X121105714Y-124969238D01*
X121105718Y-124969249D01*
X121191160Y-125152479D01*
X121202477Y-125176749D01*
X121333802Y-125364300D01*
X121495700Y-125526198D01*
X121683251Y-125657523D01*
X121808091Y-125715736D01*
X121890750Y-125754281D01*
X121890752Y-125754281D01*
X121890757Y-125754284D01*
X122111913Y-125813543D01*
X122274832Y-125827796D01*
X122339998Y-125833498D01*
X122340000Y-125833498D01*
X122340002Y-125833498D01*
X122397021Y-125828509D01*
X122568087Y-125813543D01*
X122789243Y-125754284D01*
X122996749Y-125657523D01*
X123184300Y-125526198D01*
X123346198Y-125364300D01*
X123477523Y-125176749D01*
X123497618Y-125133655D01*
X123543790Y-125081215D01*
X123610983Y-125062063D01*
X123677864Y-125082278D01*
X123722382Y-125133655D01*
X123742477Y-125176749D01*
X123873802Y-125364300D01*
X124035700Y-125526198D01*
X124223251Y-125657523D01*
X124348091Y-125715736D01*
X124430750Y-125754281D01*
X124430752Y-125754281D01*
X124430757Y-125754284D01*
X124651913Y-125813543D01*
X124814832Y-125827796D01*
X124879998Y-125833498D01*
X124880000Y-125833498D01*
X124880002Y-125833498D01*
X124937021Y-125828509D01*
X125108087Y-125813543D01*
X125329243Y-125754284D01*
X125536749Y-125657523D01*
X125724300Y-125526198D01*
X125886198Y-125364300D01*
X126017523Y-125176749D01*
X126037618Y-125133655D01*
X126083790Y-125081215D01*
X126150983Y-125062063D01*
X126217864Y-125082278D01*
X126262382Y-125133655D01*
X126282477Y-125176749D01*
X126413802Y-125364300D01*
X126575700Y-125526198D01*
X126763251Y-125657523D01*
X126888091Y-125715736D01*
X126970750Y-125754281D01*
X126970752Y-125754281D01*
X126970757Y-125754284D01*
X127191913Y-125813543D01*
X127354832Y-125827796D01*
X127419998Y-125833498D01*
X127420000Y-125833498D01*
X127420002Y-125833498D01*
X127477021Y-125828509D01*
X127648087Y-125813543D01*
X127869243Y-125754284D01*
X128076749Y-125657523D01*
X128264300Y-125526198D01*
X128426198Y-125364300D01*
X128557523Y-125176749D01*
X128582307Y-125123598D01*
X128628479Y-125071159D01*
X128695672Y-125052007D01*
X128762553Y-125072222D01*
X128807071Y-125123599D01*
X128829864Y-125172479D01*
X128829865Y-125172481D01*
X128960342Y-125358820D01*
X129121179Y-125519657D01*
X129307517Y-125650134D01*
X129513673Y-125746265D01*
X129513682Y-125746269D01*
X129709999Y-125798872D01*
X129710000Y-125798871D01*
X129710000Y-124835686D01*
X129714394Y-124840080D01*
X129805606Y-124892741D01*
X129907339Y-124920000D01*
X130012661Y-124920000D01*
X130114394Y-124892741D01*
X130205606Y-124840080D01*
X130210000Y-124835686D01*
X130210000Y-125798872D01*
X130406317Y-125746269D01*
X130406326Y-125746265D01*
X130612482Y-125650134D01*
X130798820Y-125519657D01*
X130959657Y-125358820D01*
X131090133Y-125172483D01*
X131112927Y-125123600D01*
X131159098Y-125071160D01*
X131226292Y-125052007D01*
X131293173Y-125072221D01*
X131337691Y-125123596D01*
X131362477Y-125176749D01*
X131493802Y-125364300D01*
X131655700Y-125526198D01*
X131843251Y-125657523D01*
X131968091Y-125715736D01*
X132050750Y-125754281D01*
X132050752Y-125754281D01*
X132050757Y-125754284D01*
X132271913Y-125813543D01*
X132434832Y-125827796D01*
X132499998Y-125833498D01*
X132500000Y-125833498D01*
X132500002Y-125833498D01*
X132557021Y-125828509D01*
X132728087Y-125813543D01*
X132949243Y-125754284D01*
X133156749Y-125657523D01*
X133344300Y-125526198D01*
X133506198Y-125364300D01*
X133637523Y-125176749D01*
X133657618Y-125133655D01*
X133703790Y-125081215D01*
X133770983Y-125062063D01*
X133837864Y-125082278D01*
X133882382Y-125133655D01*
X133902477Y-125176749D01*
X134033802Y-125364300D01*
X134195700Y-125526198D01*
X134383251Y-125657523D01*
X134508091Y-125715736D01*
X134590750Y-125754281D01*
X134590752Y-125754281D01*
X134590757Y-125754284D01*
X134811913Y-125813543D01*
X134974832Y-125827796D01*
X135039998Y-125833498D01*
X135040000Y-125833498D01*
X135040002Y-125833498D01*
X135097021Y-125828509D01*
X135268087Y-125813543D01*
X135489243Y-125754284D01*
X135696749Y-125657523D01*
X135884300Y-125526198D01*
X136046198Y-125364300D01*
X136177523Y-125176749D01*
X136197618Y-125133655D01*
X136243790Y-125081215D01*
X136310983Y-125062063D01*
X136377864Y-125082278D01*
X136422382Y-125133655D01*
X136442477Y-125176749D01*
X136573802Y-125364300D01*
X136735700Y-125526198D01*
X136923251Y-125657523D01*
X137048091Y-125715736D01*
X137130750Y-125754281D01*
X137130752Y-125754281D01*
X137130757Y-125754284D01*
X137351913Y-125813543D01*
X137514832Y-125827796D01*
X137579998Y-125833498D01*
X137580000Y-125833498D01*
X137580002Y-125833498D01*
X137637021Y-125828509D01*
X137808087Y-125813543D01*
X138029243Y-125754284D01*
X138236749Y-125657523D01*
X138424300Y-125526198D01*
X138586198Y-125364300D01*
X138597153Y-125348654D01*
X139571500Y-125348654D01*
X139578011Y-125409202D01*
X139578011Y-125409204D01*
X139619209Y-125519657D01*
X139629111Y-125546204D01*
X139716739Y-125663261D01*
X139833796Y-125750889D01*
X139970799Y-125801989D01*
X139998050Y-125804918D01*
X140031345Y-125808499D01*
X140031362Y-125808500D01*
X141728638Y-125808500D01*
X141728654Y-125808499D01*
X141755692Y-125805591D01*
X141789201Y-125801989D01*
X141926204Y-125750889D01*
X142043261Y-125663261D01*
X142130889Y-125546204D01*
X142181989Y-125409201D01*
X142183569Y-125394500D01*
X142210304Y-125329952D01*
X142267695Y-125290102D01*
X142337521Y-125287606D01*
X142397611Y-125323257D01*
X142408428Y-125336626D01*
X142413802Y-125344300D01*
X142575700Y-125506198D01*
X142763251Y-125637523D01*
X142806144Y-125657524D01*
X142970750Y-125734281D01*
X142970752Y-125734281D01*
X142970757Y-125734284D01*
X143191913Y-125793543D01*
X143354832Y-125807796D01*
X143419998Y-125813498D01*
X143420000Y-125813498D01*
X143420002Y-125813498D01*
X143477139Y-125808499D01*
X143648087Y-125793543D01*
X143869243Y-125734284D01*
X144076749Y-125637523D01*
X144264300Y-125506198D01*
X144426198Y-125344300D01*
X144557523Y-125156749D01*
X144577618Y-125113655D01*
X144623790Y-125061215D01*
X144690983Y-125042063D01*
X144757864Y-125062278D01*
X144802382Y-125113655D01*
X144821985Y-125155695D01*
X144822477Y-125156749D01*
X144953802Y-125344300D01*
X145115700Y-125506198D01*
X145303251Y-125637523D01*
X145346144Y-125657524D01*
X145510750Y-125734281D01*
X145510752Y-125734281D01*
X145510757Y-125734284D01*
X145731913Y-125793543D01*
X145894832Y-125807796D01*
X145959998Y-125813498D01*
X145960000Y-125813498D01*
X145960002Y-125813498D01*
X146017139Y-125808499D01*
X146188087Y-125793543D01*
X146409243Y-125734284D01*
X146616749Y-125637523D01*
X146804300Y-125506198D01*
X146966198Y-125344300D01*
X147097523Y-125156749D01*
X147122307Y-125103598D01*
X147168479Y-125051159D01*
X147235672Y-125032007D01*
X147302553Y-125052222D01*
X147347071Y-125103599D01*
X147369864Y-125152479D01*
X147369865Y-125152481D01*
X147500342Y-125338820D01*
X147661179Y-125499657D01*
X147847517Y-125630134D01*
X148053673Y-125726265D01*
X148053682Y-125726269D01*
X148249999Y-125778872D01*
X148250000Y-125778871D01*
X148250000Y-124815686D01*
X148254394Y-124820080D01*
X148345606Y-124872741D01*
X148447339Y-124900000D01*
X148552661Y-124900000D01*
X148654394Y-124872741D01*
X148745606Y-124820080D01*
X148750000Y-124815686D01*
X148750000Y-125778872D01*
X148946317Y-125726269D01*
X148946326Y-125726265D01*
X149152482Y-125630134D01*
X149338820Y-125499657D01*
X149499657Y-125338820D01*
X149624869Y-125160001D01*
X153186502Y-125160001D01*
X153206456Y-125388081D01*
X153206457Y-125388089D01*
X153265714Y-125609238D01*
X153265718Y-125609249D01*
X153360982Y-125813543D01*
X153362477Y-125816749D01*
X153493802Y-126004300D01*
X153655700Y-126166198D01*
X153843251Y-126297523D01*
X153940870Y-126343043D01*
X154050750Y-126394281D01*
X154050752Y-126394281D01*
X154050757Y-126394284D01*
X154271913Y-126453543D01*
X154434832Y-126467796D01*
X154499998Y-126473498D01*
X154500000Y-126473498D01*
X154500002Y-126473498D01*
X154557021Y-126468509D01*
X154728087Y-126453543D01*
X154949243Y-126394284D01*
X155156749Y-126297523D01*
X155344300Y-126166198D01*
X155506198Y-126004300D01*
X155637523Y-125816749D01*
X155734284Y-125609243D01*
X155793543Y-125388087D01*
X155813498Y-125160000D01*
X155813213Y-125156747D01*
X155805818Y-125072221D01*
X155793543Y-124931913D01*
X155734284Y-124710757D01*
X155732278Y-124706456D01*
X155658034Y-124547237D01*
X155637523Y-124503251D01*
X155506198Y-124315700D01*
X155344300Y-124153802D01*
X155156749Y-124022477D01*
X155156745Y-124022475D01*
X154949249Y-123925718D01*
X154949238Y-123925714D01*
X154728089Y-123866457D01*
X154728081Y-123866456D01*
X154500002Y-123846502D01*
X154499998Y-123846502D01*
X154271918Y-123866456D01*
X154271910Y-123866457D01*
X154050761Y-123925714D01*
X154050750Y-123925718D01*
X153843254Y-124022475D01*
X153843252Y-124022476D01*
X153798686Y-124053682D01*
X153655700Y-124153802D01*
X153655698Y-124153803D01*
X153655695Y-124153806D01*
X153493806Y-124315695D01*
X153493803Y-124315698D01*
X153493802Y-124315700D01*
X153448822Y-124379938D01*
X153362476Y-124503252D01*
X153362475Y-124503254D01*
X153265718Y-124710750D01*
X153265714Y-124710761D01*
X153206457Y-124931910D01*
X153206456Y-124931918D01*
X153186502Y-125159998D01*
X153186502Y-125160001D01*
X149624869Y-125160001D01*
X149630134Y-125152482D01*
X149726265Y-124946326D01*
X149726269Y-124946317D01*
X149778872Y-124750000D01*
X148815686Y-124750000D01*
X148820080Y-124745606D01*
X148872741Y-124654394D01*
X148900000Y-124552661D01*
X148900000Y-124447339D01*
X148872741Y-124345606D01*
X148820080Y-124254394D01*
X148815686Y-124250000D01*
X149778872Y-124250000D01*
X149778872Y-124249999D01*
X149726269Y-124053682D01*
X149726265Y-124053673D01*
X149630134Y-123847517D01*
X149499657Y-123661179D01*
X149338820Y-123500342D01*
X149152482Y-123369865D01*
X148946328Y-123273734D01*
X148750000Y-123221127D01*
X148750000Y-124184314D01*
X148745606Y-124179920D01*
X148654394Y-124127259D01*
X148552661Y-124100000D01*
X148447339Y-124100000D01*
X148345606Y-124127259D01*
X148254394Y-124179920D01*
X148250000Y-124184314D01*
X148250000Y-123221127D01*
X148053671Y-123273734D01*
X147847517Y-123369865D01*
X147661179Y-123500342D01*
X147500342Y-123661179D01*
X147369865Y-123847517D01*
X147347071Y-123896401D01*
X147300898Y-123948840D01*
X147233705Y-123967992D01*
X147166824Y-123947776D01*
X147122307Y-123896401D01*
X147120301Y-123892100D01*
X147097523Y-123843251D01*
X146966198Y-123655700D01*
X146804300Y-123493802D01*
X146616749Y-123362477D01*
X146616745Y-123362475D01*
X146409249Y-123265718D01*
X146409238Y-123265714D01*
X146188089Y-123206457D01*
X146188081Y-123206456D01*
X145960002Y-123186502D01*
X145959998Y-123186502D01*
X145731918Y-123206456D01*
X145731910Y-123206457D01*
X145510761Y-123265714D01*
X145510750Y-123265718D01*
X145303254Y-123362475D01*
X145303252Y-123362476D01*
X145274688Y-123382477D01*
X145115700Y-123493802D01*
X145115698Y-123493803D01*
X145115695Y-123493806D01*
X144953806Y-123655695D01*
X144953803Y-123655698D01*
X144953802Y-123655700D01*
X144928454Y-123691901D01*
X144822476Y-123843251D01*
X144802382Y-123886345D01*
X144756209Y-123938784D01*
X144689016Y-123957936D01*
X144622135Y-123937720D01*
X144577618Y-123886345D01*
X144557523Y-123843251D01*
X144514968Y-123782477D01*
X144426198Y-123655700D01*
X144264300Y-123493802D01*
X144076749Y-123362477D01*
X144076745Y-123362475D01*
X143869249Y-123265718D01*
X143869238Y-123265714D01*
X143648089Y-123206457D01*
X143648081Y-123206456D01*
X143420002Y-123186502D01*
X143419998Y-123186502D01*
X143191918Y-123206456D01*
X143191910Y-123206457D01*
X142970761Y-123265714D01*
X142970750Y-123265718D01*
X142763254Y-123362475D01*
X142763252Y-123362476D01*
X142734688Y-123382477D01*
X142575700Y-123493802D01*
X142575698Y-123493803D01*
X142575695Y-123493806D01*
X142413805Y-123655696D01*
X142408429Y-123663374D01*
X142353849Y-123706995D01*
X142284350Y-123714184D01*
X142221997Y-123682658D01*
X142186587Y-123622426D01*
X142183570Y-123605510D01*
X142181989Y-123590799D01*
X142130889Y-123453796D01*
X142043261Y-123336739D01*
X141926204Y-123249111D01*
X141920434Y-123246959D01*
X141789203Y-123198011D01*
X141728654Y-123191500D01*
X141728638Y-123191500D01*
X140031362Y-123191500D01*
X140031345Y-123191500D01*
X139970797Y-123198011D01*
X139970795Y-123198011D01*
X139833795Y-123249111D01*
X139716739Y-123336739D01*
X139629111Y-123453795D01*
X139578011Y-123590795D01*
X139578011Y-123590797D01*
X139571500Y-123651345D01*
X139571500Y-125348654D01*
X138597153Y-125348654D01*
X138717523Y-125176749D01*
X138814284Y-124969243D01*
X138873543Y-124748087D01*
X138893498Y-124520000D01*
X138890562Y-124486447D01*
X138878329Y-124346615D01*
X138873543Y-124291913D01*
X138814284Y-124070757D01*
X138717523Y-123863251D01*
X138586198Y-123675700D01*
X138424300Y-123513802D01*
X138236749Y-123382477D01*
X138214144Y-123371936D01*
X138029249Y-123285718D01*
X138029238Y-123285714D01*
X137808089Y-123226457D01*
X137808081Y-123226456D01*
X137580002Y-123206502D01*
X137579998Y-123206502D01*
X137351918Y-123226456D01*
X137351910Y-123226457D01*
X137130761Y-123285714D01*
X137130750Y-123285718D01*
X136923254Y-123382475D01*
X136923252Y-123382476D01*
X136923251Y-123382477D01*
X136735700Y-123513802D01*
X136735698Y-123513803D01*
X136735695Y-123513806D01*
X136573806Y-123675695D01*
X136573803Y-123675698D01*
X136573802Y-123675700D01*
X136565492Y-123687568D01*
X136442476Y-123863251D01*
X136422382Y-123906345D01*
X136376209Y-123958784D01*
X136309016Y-123977936D01*
X136242135Y-123957720D01*
X136197618Y-123906345D01*
X136177523Y-123863251D01*
X136120964Y-123782477D01*
X136046198Y-123675700D01*
X135884300Y-123513802D01*
X135696749Y-123382477D01*
X135674144Y-123371936D01*
X135489249Y-123285718D01*
X135489238Y-123285714D01*
X135268089Y-123226457D01*
X135268081Y-123226456D01*
X135040002Y-123206502D01*
X135039998Y-123206502D01*
X134811918Y-123226456D01*
X134811910Y-123226457D01*
X134590761Y-123285714D01*
X134590750Y-123285718D01*
X134383254Y-123382475D01*
X134383252Y-123382476D01*
X134383251Y-123382477D01*
X134195700Y-123513802D01*
X134195698Y-123513803D01*
X134195695Y-123513806D01*
X134033806Y-123675695D01*
X134033803Y-123675698D01*
X134033802Y-123675700D01*
X134025492Y-123687568D01*
X133902476Y-123863251D01*
X133882382Y-123906345D01*
X133836209Y-123958784D01*
X133769016Y-123977936D01*
X133702135Y-123957720D01*
X133657618Y-123906345D01*
X133637523Y-123863251D01*
X133580964Y-123782477D01*
X133506198Y-123675700D01*
X133344300Y-123513802D01*
X133156749Y-123382477D01*
X133134144Y-123371936D01*
X132949249Y-123285718D01*
X132949238Y-123285714D01*
X132728089Y-123226457D01*
X132728081Y-123226456D01*
X132500002Y-123206502D01*
X132499998Y-123206502D01*
X132271918Y-123226456D01*
X132271910Y-123226457D01*
X132050761Y-123285714D01*
X132050750Y-123285718D01*
X131843254Y-123382475D01*
X131843252Y-123382476D01*
X131843251Y-123382477D01*
X131655700Y-123513802D01*
X131655698Y-123513803D01*
X131655695Y-123513806D01*
X131493806Y-123675695D01*
X131493803Y-123675698D01*
X131493802Y-123675700D01*
X131430808Y-123765664D01*
X131362476Y-123863252D01*
X131362474Y-123863256D01*
X131337691Y-123916402D01*
X131291518Y-123968841D01*
X131224324Y-123987992D01*
X131157444Y-123967775D01*
X131112927Y-123916399D01*
X131090133Y-123867517D01*
X130959657Y-123681179D01*
X130798820Y-123520342D01*
X130612482Y-123389865D01*
X130406328Y-123293734D01*
X130210000Y-123241127D01*
X130210000Y-124204314D01*
X130205606Y-124199920D01*
X130114394Y-124147259D01*
X130012661Y-124120000D01*
X129907339Y-124120000D01*
X129805606Y-124147259D01*
X129714394Y-124199920D01*
X129710000Y-124204314D01*
X129710000Y-123241127D01*
X129513671Y-123293734D01*
X129307517Y-123389865D01*
X129121179Y-123520342D01*
X128960342Y-123681179D01*
X128829865Y-123867517D01*
X128807071Y-123916401D01*
X128760898Y-123968840D01*
X128693705Y-123987992D01*
X128626824Y-123967776D01*
X128582307Y-123916401D01*
X128557523Y-123863251D01*
X128500964Y-123782477D01*
X128426198Y-123675700D01*
X128264300Y-123513802D01*
X128076749Y-123382477D01*
X128054144Y-123371936D01*
X127869249Y-123285718D01*
X127869238Y-123285714D01*
X127648089Y-123226457D01*
X127648081Y-123226456D01*
X127420002Y-123206502D01*
X127419998Y-123206502D01*
X127191918Y-123226456D01*
X127191910Y-123226457D01*
X126970761Y-123285714D01*
X126970750Y-123285718D01*
X126763254Y-123382475D01*
X126763252Y-123382476D01*
X126763251Y-123382477D01*
X126575700Y-123513802D01*
X126575698Y-123513803D01*
X126575695Y-123513806D01*
X126413806Y-123675695D01*
X126413803Y-123675698D01*
X126413802Y-123675700D01*
X126405492Y-123687568D01*
X126282476Y-123863251D01*
X126262382Y-123906345D01*
X126216209Y-123958784D01*
X126149016Y-123977936D01*
X126082135Y-123957720D01*
X126037618Y-123906345D01*
X126017523Y-123863251D01*
X125960964Y-123782477D01*
X125886198Y-123675700D01*
X125724300Y-123513802D01*
X125536749Y-123382477D01*
X125514144Y-123371936D01*
X125329249Y-123285718D01*
X125329238Y-123285714D01*
X125108089Y-123226457D01*
X125108081Y-123226456D01*
X124880002Y-123206502D01*
X124879998Y-123206502D01*
X124651918Y-123226456D01*
X124651910Y-123226457D01*
X124430761Y-123285714D01*
X124430750Y-123285718D01*
X124223254Y-123382475D01*
X124223252Y-123382476D01*
X124223251Y-123382477D01*
X124035700Y-123513802D01*
X124035698Y-123513803D01*
X124035695Y-123513806D01*
X123873806Y-123675695D01*
X123873803Y-123675698D01*
X123873802Y-123675700D01*
X123865492Y-123687568D01*
X123742476Y-123863251D01*
X123722382Y-123906345D01*
X123676209Y-123958784D01*
X123609016Y-123977936D01*
X123542135Y-123957720D01*
X123497618Y-123906345D01*
X123477523Y-123863251D01*
X123420964Y-123782477D01*
X123346198Y-123675700D01*
X123184300Y-123513802D01*
X122996749Y-123382477D01*
X122974144Y-123371936D01*
X122789249Y-123285718D01*
X122789238Y-123285714D01*
X122568089Y-123226457D01*
X122568081Y-123226456D01*
X122340002Y-123206502D01*
X122339998Y-123206502D01*
X122111918Y-123226456D01*
X122111910Y-123226457D01*
X121890761Y-123285714D01*
X121890750Y-123285718D01*
X121683254Y-123382475D01*
X121683252Y-123382476D01*
X121683251Y-123382477D01*
X121495700Y-123513802D01*
X121495698Y-123513803D01*
X121495695Y-123513806D01*
X121333806Y-123675695D01*
X121333803Y-123675698D01*
X121333802Y-123675700D01*
X121270808Y-123765664D01*
X121202476Y-123863252D01*
X121202475Y-123863254D01*
X121105718Y-124070750D01*
X121105714Y-124070761D01*
X121046457Y-124291910D01*
X121046456Y-124291918D01*
X121026502Y-124519998D01*
X121026502Y-124520001D01*
X120520245Y-124520001D01*
X120456915Y-124120130D01*
X120396015Y-123866457D01*
X120355968Y-123699646D01*
X120282526Y-123473613D01*
X120222342Y-123288381D01*
X120056860Y-122888866D01*
X120056857Y-122888860D01*
X120056851Y-122888846D01*
X119860552Y-122503586D01*
X119860546Y-122503575D01*
X119860542Y-122503567D01*
X119634599Y-122134859D01*
X119583804Y-122064946D01*
X119380428Y-121785022D01*
X119380423Y-121785015D01*
X119099582Y-121456192D01*
X119007347Y-121363957D01*
X119007328Y-121363936D01*
X118990904Y-121347512D01*
X118871373Y-121227981D01*
X118867196Y-121223593D01*
X118634658Y-120967024D01*
X118626938Y-120957618D01*
X118554445Y-120859872D01*
X118422473Y-120681928D01*
X118415716Y-120671815D01*
X118408157Y-120659204D01*
X118239265Y-120377422D01*
X118233532Y-120366696D01*
X118165558Y-120222977D01*
X118086780Y-120056415D01*
X118082132Y-120045194D01*
X117966495Y-119722009D01*
X117962970Y-119710386D01*
X117879572Y-119377441D01*
X117877199Y-119365509D01*
X117826838Y-119026001D01*
X117825646Y-119013896D01*
X117808648Y-118667896D01*
X117808500Y-118661840D01*
X117808500Y-117559961D01*
X117815078Y-117520111D01*
X117835066Y-117461215D01*
X118221846Y-116321536D01*
X118223922Y-116314583D01*
X118230352Y-116297672D01*
X118234284Y-116289243D01*
X118293543Y-116068087D01*
X118295008Y-116051340D01*
X118320456Y-115986276D01*
X118377045Y-115945295D01*
X118446807Y-115941414D01*
X118465982Y-115947584D01*
X118631651Y-116016204D01*
X118631656Y-116016206D01*
X118784907Y-116057267D01*
X118860645Y-116077560D01*
X118860646Y-116077560D01*
X118860649Y-116077561D01*
X118963823Y-116091142D01*
X119095689Y-116108501D01*
X119214225Y-116108500D01*
X119691217Y-116108500D01*
X119772127Y-116108500D01*
X119780236Y-116108765D01*
X119796872Y-116109855D01*
X119966284Y-116120958D01*
X119982338Y-116123072D01*
X120161193Y-116158649D01*
X120176859Y-116162847D01*
X120349531Y-116221461D01*
X120364517Y-116227668D01*
X120528065Y-116308322D01*
X120542113Y-116316433D01*
X120674583Y-116404949D01*
X120719387Y-116458561D01*
X120719559Y-116458957D01*
X121124797Y-117398879D01*
X121147276Y-117444626D01*
X121150413Y-117449708D01*
X121150294Y-117449781D01*
X121160441Y-117466603D01*
X121202477Y-117556749D01*
X121333802Y-117744300D01*
X121495700Y-117906198D01*
X121683251Y-118037523D01*
X121738445Y-118063260D01*
X121890750Y-118134281D01*
X121890752Y-118134281D01*
X121890757Y-118134284D01*
X122111913Y-118193543D01*
X122274832Y-118207796D01*
X122339998Y-118213498D01*
X122340000Y-118213498D01*
X122340002Y-118213498D01*
X122397139Y-118208499D01*
X122568087Y-118193543D01*
X122789243Y-118134284D01*
X122996749Y-118037523D01*
X123184300Y-117906198D01*
X123346198Y-117744300D01*
X123477523Y-117556749D01*
X123497618Y-117513655D01*
X123543790Y-117461215D01*
X123610983Y-117442063D01*
X123677864Y-117462278D01*
X123722382Y-117513655D01*
X123725392Y-117520111D01*
X123742477Y-117556749D01*
X123873802Y-117744300D01*
X124035700Y-117906198D01*
X124223251Y-118037523D01*
X124278445Y-118063260D01*
X124430750Y-118134281D01*
X124430752Y-118134281D01*
X124430757Y-118134284D01*
X124651913Y-118193543D01*
X124814832Y-118207796D01*
X124879998Y-118213498D01*
X124880000Y-118213498D01*
X124880002Y-118213498D01*
X124937139Y-118208499D01*
X125108087Y-118193543D01*
X125329243Y-118134284D01*
X125536749Y-118037523D01*
X125724300Y-117906198D01*
X125886198Y-117744300D01*
X126017523Y-117556749D01*
X126037618Y-117513655D01*
X126083790Y-117461215D01*
X126150983Y-117442063D01*
X126217864Y-117462278D01*
X126262382Y-117513655D01*
X126265392Y-117520111D01*
X126282477Y-117556749D01*
X126413802Y-117744300D01*
X126575700Y-117906198D01*
X126763251Y-118037523D01*
X126818445Y-118063260D01*
X126970750Y-118134281D01*
X126970752Y-118134281D01*
X126970757Y-118134284D01*
X127191913Y-118193543D01*
X127354832Y-118207796D01*
X127419998Y-118213498D01*
X127420000Y-118213498D01*
X127420002Y-118213498D01*
X127477139Y-118208499D01*
X127648087Y-118193543D01*
X127869243Y-118134284D01*
X128076749Y-118037523D01*
X128264300Y-117906198D01*
X128426198Y-117744300D01*
X128557523Y-117556749D01*
X128577618Y-117513655D01*
X128623790Y-117461215D01*
X128690983Y-117442063D01*
X128757864Y-117462278D01*
X128802382Y-117513655D01*
X128805392Y-117520111D01*
X128822477Y-117556749D01*
X128953802Y-117744300D01*
X129115700Y-117906198D01*
X129303251Y-118037523D01*
X129358445Y-118063260D01*
X129510750Y-118134281D01*
X129510752Y-118134281D01*
X129510757Y-118134284D01*
X129731913Y-118193543D01*
X129894832Y-118207796D01*
X129959998Y-118213498D01*
X129960000Y-118213498D01*
X129960002Y-118213498D01*
X130017139Y-118208499D01*
X130188087Y-118193543D01*
X130409243Y-118134284D01*
X130616749Y-118037523D01*
X130804300Y-117906198D01*
X130966198Y-117744300D01*
X131097523Y-117556749D01*
X131117618Y-117513655D01*
X131163790Y-117461215D01*
X131230983Y-117442063D01*
X131297864Y-117462278D01*
X131342382Y-117513655D01*
X131345392Y-117520111D01*
X131362477Y-117556749D01*
X131493802Y-117744300D01*
X131655700Y-117906198D01*
X131843251Y-118037523D01*
X131898445Y-118063260D01*
X132050750Y-118134281D01*
X132050752Y-118134281D01*
X132050757Y-118134284D01*
X132271913Y-118193543D01*
X132434832Y-118207796D01*
X132499998Y-118213498D01*
X132500000Y-118213498D01*
X132500002Y-118213498D01*
X132557139Y-118208499D01*
X132728087Y-118193543D01*
X132949243Y-118134284D01*
X133156749Y-118037523D01*
X133344300Y-117906198D01*
X133506198Y-117744300D01*
X133637523Y-117556749D01*
X133657618Y-117513655D01*
X133703790Y-117461215D01*
X133770983Y-117442063D01*
X133837864Y-117462278D01*
X133882382Y-117513655D01*
X133885392Y-117520111D01*
X133902477Y-117556749D01*
X134033802Y-117744300D01*
X134195700Y-117906198D01*
X134383251Y-118037523D01*
X134438445Y-118063260D01*
X134590750Y-118134281D01*
X134590752Y-118134281D01*
X134590757Y-118134284D01*
X134811913Y-118193543D01*
X134974832Y-118207796D01*
X135039998Y-118213498D01*
X135040000Y-118213498D01*
X135040002Y-118213498D01*
X135097139Y-118208499D01*
X135268087Y-118193543D01*
X135489243Y-118134284D01*
X135696749Y-118037523D01*
X135884300Y-117906198D01*
X136046198Y-117744300D01*
X136051566Y-117736632D01*
X136106139Y-117693008D01*
X136175637Y-117685813D01*
X136237993Y-117717333D01*
X136273409Y-117777562D01*
X136276430Y-117794498D01*
X136278011Y-117809202D01*
X136278011Y-117809204D01*
X136314189Y-117906198D01*
X136329111Y-117946204D01*
X136416739Y-118063261D01*
X136533796Y-118150889D01*
X136670799Y-118201989D01*
X136698050Y-118204918D01*
X136731345Y-118208499D01*
X136731362Y-118208500D01*
X138428638Y-118208500D01*
X138428654Y-118208499D01*
X138455692Y-118205591D01*
X138489201Y-118201989D01*
X138626204Y-118150889D01*
X138743261Y-118063261D01*
X138830889Y-117946204D01*
X138881989Y-117809201D01*
X138885591Y-117775692D01*
X138888499Y-117748654D01*
X138888500Y-117748637D01*
X138888500Y-116880001D01*
X139566502Y-116880001D01*
X139586456Y-117108081D01*
X139586457Y-117108089D01*
X139645714Y-117329238D01*
X139645718Y-117329249D01*
X139742475Y-117536745D01*
X139742477Y-117536749D01*
X139873802Y-117724300D01*
X140035700Y-117886198D01*
X140223251Y-118017523D01*
X140266144Y-118037524D01*
X140430750Y-118114281D01*
X140430752Y-118114281D01*
X140430757Y-118114284D01*
X140651913Y-118173543D01*
X140814832Y-118187796D01*
X140879998Y-118193498D01*
X140880000Y-118193498D01*
X140880002Y-118193498D01*
X140937021Y-118188509D01*
X141108087Y-118173543D01*
X141329243Y-118114284D01*
X141536749Y-118017523D01*
X141724300Y-117886198D01*
X141886198Y-117724300D01*
X142017523Y-117536749D01*
X142037618Y-117493655D01*
X142083790Y-117441215D01*
X142150983Y-117422063D01*
X142217864Y-117442278D01*
X142262382Y-117493655D01*
X142282477Y-117536749D01*
X142413802Y-117724300D01*
X142575700Y-117886198D01*
X142763251Y-118017523D01*
X142806144Y-118037524D01*
X142970750Y-118114281D01*
X142970752Y-118114281D01*
X142970757Y-118114284D01*
X143191913Y-118173543D01*
X143354832Y-118187796D01*
X143419998Y-118193498D01*
X143420000Y-118193498D01*
X143420002Y-118193498D01*
X143477021Y-118188509D01*
X143648087Y-118173543D01*
X143869243Y-118114284D01*
X144076749Y-118017523D01*
X144264300Y-117886198D01*
X144426198Y-117724300D01*
X144557523Y-117536749D01*
X144577618Y-117493655D01*
X144623790Y-117441215D01*
X144690983Y-117422063D01*
X144757864Y-117442278D01*
X144802382Y-117493655D01*
X144822477Y-117536749D01*
X144953802Y-117724300D01*
X145115700Y-117886198D01*
X145303251Y-118017523D01*
X145346144Y-118037524D01*
X145510750Y-118114281D01*
X145510752Y-118114281D01*
X145510757Y-118114284D01*
X145731913Y-118173543D01*
X145894832Y-118187796D01*
X145959998Y-118193498D01*
X145960000Y-118193498D01*
X145960002Y-118193498D01*
X146017021Y-118188509D01*
X146188087Y-118173543D01*
X146409243Y-118114284D01*
X146616749Y-118017523D01*
X146804300Y-117886198D01*
X146966198Y-117724300D01*
X147097523Y-117536749D01*
X147117618Y-117493655D01*
X147163790Y-117441215D01*
X147230983Y-117422063D01*
X147297864Y-117442278D01*
X147342382Y-117493655D01*
X147362477Y-117536749D01*
X147493802Y-117724300D01*
X147655700Y-117886198D01*
X147843251Y-118017523D01*
X147886144Y-118037524D01*
X148050750Y-118114281D01*
X148050752Y-118114281D01*
X148050757Y-118114284D01*
X148271913Y-118173543D01*
X148434832Y-118187796D01*
X148499998Y-118193498D01*
X148500000Y-118193498D01*
X148500002Y-118193498D01*
X148557021Y-118188509D01*
X148728087Y-118173543D01*
X148949243Y-118114284D01*
X149156749Y-118017523D01*
X149344300Y-117886198D01*
X149506198Y-117724300D01*
X149637523Y-117536749D01*
X149734284Y-117329243D01*
X149793543Y-117108087D01*
X149813498Y-116880000D01*
X149793543Y-116651913D01*
X149734284Y-116430757D01*
X149730321Y-116422259D01*
X149680119Y-116314599D01*
X149637523Y-116223251D01*
X149506198Y-116035700D01*
X149344300Y-115873802D01*
X149156749Y-115742477D01*
X149144444Y-115736739D01*
X148949249Y-115645718D01*
X148949238Y-115645714D01*
X148728089Y-115586457D01*
X148728081Y-115586456D01*
X148500002Y-115566502D01*
X148499998Y-115566502D01*
X148271918Y-115586456D01*
X148271910Y-115586457D01*
X148050761Y-115645714D01*
X148050750Y-115645718D01*
X147843254Y-115742475D01*
X147843252Y-115742476D01*
X147782431Y-115785064D01*
X147655700Y-115873802D01*
X147655698Y-115873803D01*
X147655695Y-115873806D01*
X147493806Y-116035695D01*
X147493803Y-116035698D01*
X147493802Y-116035700D01*
X147465067Y-116076738D01*
X147362476Y-116223251D01*
X147342382Y-116266345D01*
X147296209Y-116318784D01*
X147229016Y-116337936D01*
X147162135Y-116317720D01*
X147117618Y-116266345D01*
X147097523Y-116223251D01*
X147069371Y-116183046D01*
X146966198Y-116035700D01*
X146804300Y-115873802D01*
X146616749Y-115742477D01*
X146604444Y-115736739D01*
X146409249Y-115645718D01*
X146409238Y-115645714D01*
X146188089Y-115586457D01*
X146188081Y-115586456D01*
X145960002Y-115566502D01*
X145959998Y-115566502D01*
X145731918Y-115586456D01*
X145731910Y-115586457D01*
X145510761Y-115645714D01*
X145510750Y-115645718D01*
X145303254Y-115742475D01*
X145303252Y-115742476D01*
X145242431Y-115785064D01*
X145115700Y-115873802D01*
X145115698Y-115873803D01*
X145115695Y-115873806D01*
X144953806Y-116035695D01*
X144953803Y-116035698D01*
X144953802Y-116035700D01*
X144925067Y-116076738D01*
X144822476Y-116223251D01*
X144802382Y-116266345D01*
X144756209Y-116318784D01*
X144689016Y-116337936D01*
X144622135Y-116317720D01*
X144577618Y-116266345D01*
X144557523Y-116223251D01*
X144529371Y-116183046D01*
X144426198Y-116035700D01*
X144264300Y-115873802D01*
X144076749Y-115742477D01*
X144064444Y-115736739D01*
X143869249Y-115645718D01*
X143869238Y-115645714D01*
X143648089Y-115586457D01*
X143648081Y-115586456D01*
X143420002Y-115566502D01*
X143419998Y-115566502D01*
X143191918Y-115586456D01*
X143191910Y-115586457D01*
X142970761Y-115645714D01*
X142970750Y-115645718D01*
X142763254Y-115742475D01*
X142763252Y-115742476D01*
X142702431Y-115785064D01*
X142575700Y-115873802D01*
X142575698Y-115873803D01*
X142575695Y-115873806D01*
X142413806Y-116035695D01*
X142413803Y-116035698D01*
X142413802Y-116035700D01*
X142385067Y-116076738D01*
X142282476Y-116223251D01*
X142262382Y-116266345D01*
X142216209Y-116318784D01*
X142149016Y-116337936D01*
X142082135Y-116317720D01*
X142037618Y-116266345D01*
X142017523Y-116223251D01*
X141989371Y-116183046D01*
X141886198Y-116035700D01*
X141724300Y-115873802D01*
X141536749Y-115742477D01*
X141524444Y-115736739D01*
X141329249Y-115645718D01*
X141329238Y-115645714D01*
X141108089Y-115586457D01*
X141108081Y-115586456D01*
X140880002Y-115566502D01*
X140879998Y-115566502D01*
X140651918Y-115586456D01*
X140651910Y-115586457D01*
X140430761Y-115645714D01*
X140430750Y-115645718D01*
X140223254Y-115742475D01*
X140223252Y-115742476D01*
X140162431Y-115785064D01*
X140035700Y-115873802D01*
X140035698Y-115873803D01*
X140035695Y-115873806D01*
X139873806Y-116035695D01*
X139873803Y-116035698D01*
X139873802Y-116035700D01*
X139844491Y-116077561D01*
X139742476Y-116223252D01*
X139742475Y-116223254D01*
X139645718Y-116430750D01*
X139645714Y-116430761D01*
X139586457Y-116651910D01*
X139586456Y-116651918D01*
X139566502Y-116879998D01*
X139566502Y-116880001D01*
X138888500Y-116880001D01*
X138888500Y-116051362D01*
X138888499Y-116051345D01*
X138884720Y-116016204D01*
X138881989Y-115990799D01*
X138830889Y-115853796D01*
X138743261Y-115736739D01*
X138626204Y-115649111D01*
X138617102Y-115645716D01*
X138489203Y-115598011D01*
X138428654Y-115591500D01*
X138428638Y-115591500D01*
X136731362Y-115591500D01*
X136731345Y-115591500D01*
X136670797Y-115598011D01*
X136670795Y-115598011D01*
X136533795Y-115649111D01*
X136416739Y-115736739D01*
X136329111Y-115853795D01*
X136278011Y-115990795D01*
X136278011Y-115990797D01*
X136276430Y-116005501D01*
X136249691Y-116070052D01*
X136192298Y-116109899D01*
X136122473Y-116112392D01*
X136062384Y-116076738D01*
X136051574Y-116063379D01*
X136046198Y-116055700D01*
X135884300Y-115893802D01*
X135696749Y-115762477D01*
X135653859Y-115742477D01*
X135489249Y-115665718D01*
X135489238Y-115665714D01*
X135268089Y-115606457D01*
X135268081Y-115606456D01*
X135040002Y-115586502D01*
X135039998Y-115586502D01*
X134811918Y-115606456D01*
X134811910Y-115606457D01*
X134590761Y-115665714D01*
X134590750Y-115665718D01*
X134383254Y-115762475D01*
X134383252Y-115762476D01*
X134350985Y-115785070D01*
X134195700Y-115893802D01*
X134195698Y-115893803D01*
X134195695Y-115893806D01*
X134033806Y-116055695D01*
X134033803Y-116055698D01*
X134033802Y-116055700D01*
X134018495Y-116077561D01*
X133902476Y-116243251D01*
X133882382Y-116286345D01*
X133836209Y-116338784D01*
X133769016Y-116357936D01*
X133702135Y-116337720D01*
X133657618Y-116286345D01*
X133637523Y-116243251D01*
X133623521Y-116223254D01*
X133506198Y-116055700D01*
X133344300Y-115893802D01*
X133156749Y-115762477D01*
X133113859Y-115742477D01*
X132949249Y-115665718D01*
X132949238Y-115665714D01*
X132728089Y-115606457D01*
X132728081Y-115606456D01*
X132500002Y-115586502D01*
X132499998Y-115586502D01*
X132271918Y-115606456D01*
X132271910Y-115606457D01*
X132050761Y-115665714D01*
X132050750Y-115665718D01*
X131843254Y-115762475D01*
X131843252Y-115762476D01*
X131810985Y-115785070D01*
X131655700Y-115893802D01*
X131655698Y-115893803D01*
X131655695Y-115893806D01*
X131493806Y-116055695D01*
X131493803Y-116055698D01*
X131493802Y-116055700D01*
X131478495Y-116077561D01*
X131362476Y-116243251D01*
X131342382Y-116286345D01*
X131296209Y-116338784D01*
X131229016Y-116357936D01*
X131162135Y-116337720D01*
X131117618Y-116286345D01*
X131097523Y-116243251D01*
X131083521Y-116223254D01*
X130966198Y-116055700D01*
X130804300Y-115893802D01*
X130616749Y-115762477D01*
X130573859Y-115742477D01*
X130409249Y-115665718D01*
X130409238Y-115665714D01*
X130188089Y-115606457D01*
X130188081Y-115606456D01*
X129960002Y-115586502D01*
X129959998Y-115586502D01*
X129731918Y-115606456D01*
X129731910Y-115606457D01*
X129510761Y-115665714D01*
X129510750Y-115665718D01*
X129303254Y-115762475D01*
X129303252Y-115762476D01*
X129270985Y-115785070D01*
X129115700Y-115893802D01*
X129115698Y-115893803D01*
X129115695Y-115893806D01*
X128953806Y-116055695D01*
X128953803Y-116055698D01*
X128953802Y-116055700D01*
X128938495Y-116077561D01*
X128822476Y-116243251D01*
X128802382Y-116286345D01*
X128756209Y-116338784D01*
X128689016Y-116357936D01*
X128622135Y-116337720D01*
X128577618Y-116286345D01*
X128557523Y-116243251D01*
X128543521Y-116223254D01*
X128426198Y-116055700D01*
X128264300Y-115893802D01*
X128076749Y-115762477D01*
X128033859Y-115742477D01*
X127869249Y-115665718D01*
X127869238Y-115665714D01*
X127648089Y-115606457D01*
X127648081Y-115606456D01*
X127420002Y-115586502D01*
X127419998Y-115586502D01*
X127191918Y-115606456D01*
X127191910Y-115606457D01*
X126970761Y-115665714D01*
X126970750Y-115665718D01*
X126763254Y-115762475D01*
X126763252Y-115762476D01*
X126730985Y-115785070D01*
X126575700Y-115893802D01*
X126575698Y-115893803D01*
X126575695Y-115893806D01*
X126413806Y-116055695D01*
X126413803Y-116055698D01*
X126413802Y-116055700D01*
X126398495Y-116077561D01*
X126282476Y-116243251D01*
X126262382Y-116286345D01*
X126216209Y-116338784D01*
X126149016Y-116357936D01*
X126082135Y-116337720D01*
X126037618Y-116286345D01*
X126017523Y-116243251D01*
X126003521Y-116223254D01*
X125886198Y-116055700D01*
X125724300Y-115893802D01*
X125536749Y-115762477D01*
X125493859Y-115742477D01*
X125329249Y-115665718D01*
X125329238Y-115665714D01*
X125108089Y-115606457D01*
X125108081Y-115606456D01*
X124880002Y-115586502D01*
X124879998Y-115586502D01*
X124651918Y-115606456D01*
X124651910Y-115606457D01*
X124430761Y-115665714D01*
X124430750Y-115665718D01*
X124223254Y-115762475D01*
X124223252Y-115762476D01*
X124190985Y-115785070D01*
X124035700Y-115893802D01*
X124035698Y-115893803D01*
X124035695Y-115893806D01*
X123873806Y-116055695D01*
X123873803Y-116055698D01*
X123873802Y-116055700D01*
X123756479Y-116223254D01*
X123742477Y-116243251D01*
X123739183Y-116250315D01*
X123693008Y-116302752D01*
X123625814Y-116321901D01*
X123558934Y-116301682D01*
X123513601Y-116248515D01*
X123507894Y-116233070D01*
X123213591Y-115237901D01*
X123208500Y-115202736D01*
X123208500Y-113500001D01*
X128686502Y-113500001D01*
X128706456Y-113728081D01*
X128706457Y-113728089D01*
X128765714Y-113949238D01*
X128765718Y-113949249D01*
X128861988Y-114155700D01*
X128862477Y-114156749D01*
X128993802Y-114344300D01*
X129155700Y-114506198D01*
X129343251Y-114637523D01*
X129415513Y-114671219D01*
X129550750Y-114734281D01*
X129550752Y-114734281D01*
X129550757Y-114734284D01*
X129771913Y-114793543D01*
X129934832Y-114807796D01*
X129999998Y-114813498D01*
X130000000Y-114813498D01*
X130000002Y-114813498D01*
X130057021Y-114808509D01*
X130228087Y-114793543D01*
X130449243Y-114734284D01*
X130656749Y-114637523D01*
X130844300Y-114506198D01*
X131006198Y-114344300D01*
X131137523Y-114156749D01*
X131138015Y-114155695D01*
X131213506Y-113993802D01*
X131234284Y-113949243D01*
X131293543Y-113728087D01*
X131313498Y-113500001D01*
X136186502Y-113500001D01*
X136206456Y-113728081D01*
X136206457Y-113728089D01*
X136265714Y-113949238D01*
X136265718Y-113949249D01*
X136361988Y-114155700D01*
X136362477Y-114156749D01*
X136493802Y-114344300D01*
X136655700Y-114506198D01*
X136843251Y-114637523D01*
X136915513Y-114671219D01*
X137050750Y-114734281D01*
X137050752Y-114734281D01*
X137050757Y-114734284D01*
X137271913Y-114793543D01*
X137434832Y-114807796D01*
X137499998Y-114813498D01*
X137500000Y-114813498D01*
X137500002Y-114813498D01*
X137557021Y-114808509D01*
X137728087Y-114793543D01*
X137949243Y-114734284D01*
X138156749Y-114637523D01*
X138344300Y-114506198D01*
X138506198Y-114344300D01*
X138637523Y-114156749D01*
X138638015Y-114155695D01*
X138713506Y-113993802D01*
X138734284Y-113949243D01*
X138793543Y-113728087D01*
X138799500Y-113660001D01*
X139936502Y-113660001D01*
X139956456Y-113888081D01*
X139956457Y-113888089D01*
X140015714Y-114109238D01*
X140015718Y-114109249D01*
X140065978Y-114217031D01*
X140112477Y-114316749D01*
X140243802Y-114504300D01*
X140405700Y-114666198D01*
X140593251Y-114797523D01*
X140627510Y-114813498D01*
X140800750Y-114894281D01*
X140800752Y-114894281D01*
X140800757Y-114894284D01*
X141021913Y-114953543D01*
X141184832Y-114967796D01*
X141249998Y-114973498D01*
X141250000Y-114973498D01*
X141250002Y-114973498D01*
X141307021Y-114968509D01*
X141478087Y-114953543D01*
X141699243Y-114894284D01*
X141906749Y-114797523D01*
X142094300Y-114666198D01*
X142256198Y-114504300D01*
X142387523Y-114316749D01*
X142484284Y-114109243D01*
X142543543Y-113888087D01*
X142559998Y-113700001D01*
X144186502Y-113700001D01*
X144206456Y-113928081D01*
X144206457Y-113928089D01*
X144265714Y-114149238D01*
X144265718Y-114149249D01*
X144343823Y-114316745D01*
X144362477Y-114356749D01*
X144493802Y-114544300D01*
X144655700Y-114706198D01*
X144843251Y-114837523D01*
X144964970Y-114894281D01*
X145050750Y-114934281D01*
X145050752Y-114934281D01*
X145050757Y-114934284D01*
X145271913Y-114993543D01*
X145434832Y-115007796D01*
X145499998Y-115013498D01*
X145500000Y-115013498D01*
X145500002Y-115013498D01*
X145557021Y-115008509D01*
X145728087Y-114993543D01*
X145949243Y-114934284D01*
X146156749Y-114837523D01*
X146344300Y-114706198D01*
X146506198Y-114544300D01*
X146637523Y-114356749D01*
X146734284Y-114149243D01*
X146793543Y-113928087D01*
X146813498Y-113700001D01*
X148686502Y-113700001D01*
X148706456Y-113928081D01*
X148706457Y-113928089D01*
X148765714Y-114149238D01*
X148765718Y-114149249D01*
X148843823Y-114316745D01*
X148862477Y-114356749D01*
X148993802Y-114544300D01*
X149155700Y-114706198D01*
X149343251Y-114837523D01*
X149464970Y-114894281D01*
X149550750Y-114934281D01*
X149550752Y-114934281D01*
X149550757Y-114934284D01*
X149771913Y-114993543D01*
X149934832Y-115007796D01*
X149999998Y-115013498D01*
X150000000Y-115013498D01*
X150000002Y-115013498D01*
X150057021Y-115008509D01*
X150154270Y-115000001D01*
X153186502Y-115000001D01*
X153206456Y-115228081D01*
X153206457Y-115228089D01*
X153265714Y-115449238D01*
X153265718Y-115449249D01*
X153357331Y-115645714D01*
X153362477Y-115656749D01*
X153493802Y-115844300D01*
X153655700Y-116006198D01*
X153843251Y-116137523D01*
X153897559Y-116162847D01*
X154050750Y-116234281D01*
X154050752Y-116234281D01*
X154050757Y-116234284D01*
X154271913Y-116293543D01*
X154434832Y-116307796D01*
X154499998Y-116313498D01*
X154500000Y-116313498D01*
X154500002Y-116313498D01*
X154559162Y-116308322D01*
X154728087Y-116293543D01*
X154949243Y-116234284D01*
X155156749Y-116137523D01*
X155344300Y-116006198D01*
X155506198Y-115844300D01*
X155637523Y-115656749D01*
X155734284Y-115449243D01*
X155793543Y-115228087D01*
X155813498Y-115000000D01*
X155812478Y-114988347D01*
X155797181Y-114813498D01*
X155793543Y-114771913D01*
X155734284Y-114550757D01*
X155704510Y-114486907D01*
X155684944Y-114444946D01*
X155637523Y-114343251D01*
X155506198Y-114155700D01*
X155344300Y-113993802D01*
X155156749Y-113862477D01*
X155143254Y-113856184D01*
X154949249Y-113765718D01*
X154949235Y-113765713D01*
X154871091Y-113744775D01*
X154811430Y-113708410D01*
X154780901Y-113645563D01*
X154789196Y-113576188D01*
X154833681Y-113522310D01*
X154871091Y-113505225D01*
X154909792Y-113494855D01*
X154949243Y-113484284D01*
X155156749Y-113387523D01*
X155344300Y-113256198D01*
X155506198Y-113094300D01*
X155637523Y-112906749D01*
X155734284Y-112699243D01*
X155793543Y-112478087D01*
X155813498Y-112250000D01*
X155809688Y-112206457D01*
X155803874Y-112139998D01*
X155793543Y-112021913D01*
X155734284Y-111800757D01*
X155637523Y-111593251D01*
X155506198Y-111405700D01*
X155344300Y-111243802D01*
X155156749Y-111112477D01*
X155136509Y-111103039D01*
X154949249Y-111015718D01*
X154949238Y-111015714D01*
X154728089Y-110956457D01*
X154728081Y-110956456D01*
X154500002Y-110936502D01*
X154499998Y-110936502D01*
X154271918Y-110956456D01*
X154271910Y-110956457D01*
X154050761Y-111015714D01*
X154050750Y-111015718D01*
X153843254Y-111112475D01*
X153843252Y-111112476D01*
X153807480Y-111137524D01*
X153655700Y-111243802D01*
X153655698Y-111243803D01*
X153655695Y-111243806D01*
X153493806Y-111405695D01*
X153493803Y-111405698D01*
X153493802Y-111405700D01*
X153411767Y-111522856D01*
X153362476Y-111593252D01*
X153362475Y-111593254D01*
X153265718Y-111800750D01*
X153265714Y-111800761D01*
X153206457Y-112021910D01*
X153206456Y-112021918D01*
X153186502Y-112249998D01*
X153186502Y-112250001D01*
X153206456Y-112478081D01*
X153206457Y-112478089D01*
X153265714Y-112699238D01*
X153265718Y-112699249D01*
X153362475Y-112906745D01*
X153362477Y-112906749D01*
X153493802Y-113094300D01*
X153655700Y-113256198D01*
X153843251Y-113387523D01*
X153938440Y-113431910D01*
X154050750Y-113484281D01*
X154050751Y-113484281D01*
X154050757Y-113484284D01*
X154109413Y-113500001D01*
X154128909Y-113505225D01*
X154188569Y-113541590D01*
X154219098Y-113604437D01*
X154210803Y-113673813D01*
X154166318Y-113727691D01*
X154128909Y-113744775D01*
X154050762Y-113765714D01*
X154050750Y-113765718D01*
X153843254Y-113862475D01*
X153843252Y-113862476D01*
X153828154Y-113873048D01*
X153655700Y-113993802D01*
X153655698Y-113993803D01*
X153655695Y-113993806D01*
X153493806Y-114155695D01*
X153493803Y-114155698D01*
X153493802Y-114155700D01*
X153411767Y-114272856D01*
X153362476Y-114343252D01*
X153362475Y-114343254D01*
X153265718Y-114550750D01*
X153265714Y-114550761D01*
X153206457Y-114771910D01*
X153206456Y-114771918D01*
X153186502Y-114999998D01*
X153186502Y-115000001D01*
X150154270Y-115000001D01*
X150228087Y-114993543D01*
X150449243Y-114934284D01*
X150656749Y-114837523D01*
X150844300Y-114706198D01*
X151006198Y-114544300D01*
X151137523Y-114356749D01*
X151234284Y-114149243D01*
X151293543Y-113928087D01*
X151313498Y-113700000D01*
X151311494Y-113677099D01*
X151304006Y-113591502D01*
X151293543Y-113471913D01*
X151234284Y-113250757D01*
X151137523Y-113043251D01*
X151006198Y-112855700D01*
X150844300Y-112693802D01*
X150656749Y-112562477D01*
X150656745Y-112562475D01*
X150449249Y-112465718D01*
X150449238Y-112465714D01*
X150228089Y-112406457D01*
X150228081Y-112406456D01*
X150000002Y-112386502D01*
X149999998Y-112386502D01*
X149771918Y-112406456D01*
X149771910Y-112406457D01*
X149550761Y-112465714D01*
X149550750Y-112465718D01*
X149343254Y-112562475D01*
X149343252Y-112562476D01*
X149343251Y-112562477D01*
X149155700Y-112693802D01*
X149155698Y-112693803D01*
X149155695Y-112693806D01*
X148993806Y-112855695D01*
X148993803Y-112855698D01*
X148993802Y-112855700D01*
X148958057Y-112906749D01*
X148862476Y-113043252D01*
X148862475Y-113043254D01*
X148765718Y-113250750D01*
X148765714Y-113250761D01*
X148706457Y-113471910D01*
X148706456Y-113471918D01*
X148686502Y-113699998D01*
X148686502Y-113700001D01*
X146813498Y-113700001D01*
X146813498Y-113700000D01*
X146811494Y-113677099D01*
X146804006Y-113591502D01*
X146793543Y-113471913D01*
X146734284Y-113250757D01*
X146637523Y-113043251D01*
X146506198Y-112855700D01*
X146344300Y-112693802D01*
X146156749Y-112562477D01*
X146156745Y-112562475D01*
X145949249Y-112465718D01*
X145949238Y-112465714D01*
X145728089Y-112406457D01*
X145728081Y-112406456D01*
X145500002Y-112386502D01*
X145499998Y-112386502D01*
X145271918Y-112406456D01*
X145271910Y-112406457D01*
X145050761Y-112465714D01*
X145050750Y-112465718D01*
X144843254Y-112562475D01*
X144843252Y-112562476D01*
X144843251Y-112562477D01*
X144655700Y-112693802D01*
X144655698Y-112693803D01*
X144655695Y-112693806D01*
X144493806Y-112855695D01*
X144493803Y-112855698D01*
X144493802Y-112855700D01*
X144458057Y-112906749D01*
X144362476Y-113043252D01*
X144362475Y-113043254D01*
X144265718Y-113250750D01*
X144265714Y-113250761D01*
X144206457Y-113471910D01*
X144206456Y-113471918D01*
X144186502Y-113699998D01*
X144186502Y-113700001D01*
X142559998Y-113700001D01*
X142563498Y-113660000D01*
X142562014Y-113643043D01*
X142551452Y-113522310D01*
X142543543Y-113431913D01*
X142484284Y-113210757D01*
X142468522Y-113176956D01*
X142429981Y-113094304D01*
X142387523Y-113003251D01*
X142256198Y-112815700D01*
X142094300Y-112653802D01*
X141906749Y-112522477D01*
X141906745Y-112522475D01*
X141699249Y-112425718D01*
X141699238Y-112425714D01*
X141478089Y-112366457D01*
X141478081Y-112366456D01*
X141250002Y-112346502D01*
X141249998Y-112346502D01*
X141021918Y-112366456D01*
X141021910Y-112366457D01*
X140800761Y-112425714D01*
X140800750Y-112425718D01*
X140593254Y-112522475D01*
X140593252Y-112522476D01*
X140593251Y-112522477D01*
X140405700Y-112653802D01*
X140405698Y-112653803D01*
X140405695Y-112653806D01*
X140243806Y-112815695D01*
X140243803Y-112815698D01*
X140243802Y-112815700D01*
X140180050Y-112906747D01*
X140112476Y-113003252D01*
X140112475Y-113003254D01*
X140015718Y-113210750D01*
X140015714Y-113210761D01*
X139956457Y-113431910D01*
X139956456Y-113431918D01*
X139936502Y-113659998D01*
X139936502Y-113660001D01*
X138799500Y-113660001D01*
X138813498Y-113500000D01*
X138811040Y-113471910D01*
X138803658Y-113387524D01*
X138793543Y-113271913D01*
X138734284Y-113050757D01*
X138730785Y-113043254D01*
X138667131Y-112906747D01*
X138637523Y-112843251D01*
X138506198Y-112655700D01*
X138344300Y-112493802D01*
X138156749Y-112362477D01*
X138156745Y-112362475D01*
X137949249Y-112265718D01*
X137949238Y-112265714D01*
X137728089Y-112206457D01*
X137728081Y-112206456D01*
X137500002Y-112186502D01*
X137499998Y-112186502D01*
X137271918Y-112206456D01*
X137271910Y-112206457D01*
X137050761Y-112265714D01*
X137050750Y-112265718D01*
X136843254Y-112362475D01*
X136843252Y-112362476D01*
X136825282Y-112375059D01*
X136655700Y-112493802D01*
X136655698Y-112493803D01*
X136655695Y-112493806D01*
X136493806Y-112655695D01*
X136493803Y-112655698D01*
X136493802Y-112655700D01*
X136463313Y-112699243D01*
X136362476Y-112843252D01*
X136362475Y-112843254D01*
X136265718Y-113050750D01*
X136265714Y-113050761D01*
X136206457Y-113271910D01*
X136206456Y-113271918D01*
X136186502Y-113499998D01*
X136186502Y-113500001D01*
X131313498Y-113500001D01*
X131313498Y-113500000D01*
X131311040Y-113471910D01*
X131303658Y-113387524D01*
X131293543Y-113271913D01*
X131234284Y-113050757D01*
X131230785Y-113043254D01*
X131167131Y-112906747D01*
X131137523Y-112843251D01*
X131006198Y-112655700D01*
X130844300Y-112493802D01*
X130656749Y-112362477D01*
X130656745Y-112362475D01*
X130449249Y-112265718D01*
X130449238Y-112265714D01*
X130228089Y-112206457D01*
X130228081Y-112206456D01*
X130000002Y-112186502D01*
X129999998Y-112186502D01*
X129771918Y-112206456D01*
X129771910Y-112206457D01*
X129550761Y-112265714D01*
X129550750Y-112265718D01*
X129343254Y-112362475D01*
X129343252Y-112362476D01*
X129325282Y-112375059D01*
X129155700Y-112493802D01*
X129155698Y-112493803D01*
X129155695Y-112493806D01*
X128993806Y-112655695D01*
X128993803Y-112655698D01*
X128993802Y-112655700D01*
X128963313Y-112699243D01*
X128862476Y-112843252D01*
X128862475Y-112843254D01*
X128765718Y-113050750D01*
X128765714Y-113050761D01*
X128706457Y-113271910D01*
X128706456Y-113271918D01*
X128686502Y-113499998D01*
X128686502Y-113500001D01*
X123208500Y-113500001D01*
X123208500Y-111719961D01*
X123215078Y-111680111D01*
X123288701Y-111463174D01*
X123621846Y-110481536D01*
X123623922Y-110474583D01*
X123630352Y-110457672D01*
X123634284Y-110449243D01*
X123693543Y-110228087D01*
X123713498Y-110000001D01*
X131246502Y-110000001D01*
X131266456Y-110228081D01*
X131266457Y-110228089D01*
X131325714Y-110449238D01*
X131325718Y-110449249D01*
X131422475Y-110656745D01*
X131422477Y-110656749D01*
X131553802Y-110844300D01*
X131715700Y-111006198D01*
X131903251Y-111137523D01*
X132028091Y-111195736D01*
X132110750Y-111234281D01*
X132110752Y-111234281D01*
X132110757Y-111234284D01*
X132331913Y-111293543D01*
X132494832Y-111307796D01*
X132559998Y-111313498D01*
X132560000Y-111313498D01*
X132560002Y-111313498D01*
X132617021Y-111308509D01*
X132788087Y-111293543D01*
X133009243Y-111234284D01*
X133216749Y-111137523D01*
X133404300Y-111006198D01*
X133566198Y-110844300D01*
X133697523Y-110656749D01*
X133794284Y-110449243D01*
X133853543Y-110228087D01*
X133873498Y-110000000D01*
X133853543Y-109771913D01*
X133794284Y-109550757D01*
X133697523Y-109343251D01*
X133566198Y-109155700D01*
X133404300Y-108993802D01*
X133216749Y-108862477D01*
X133181028Y-108845820D01*
X133009249Y-108765718D01*
X133009238Y-108765714D01*
X132788089Y-108706457D01*
X132788081Y-108706456D01*
X132560002Y-108686502D01*
X132559998Y-108686502D01*
X132331918Y-108706456D01*
X132331910Y-108706457D01*
X132110761Y-108765714D01*
X132110750Y-108765718D01*
X131903254Y-108862475D01*
X131903252Y-108862476D01*
X131903251Y-108862477D01*
X131715700Y-108993802D01*
X131715698Y-108993803D01*
X131715695Y-108993806D01*
X131553806Y-109155695D01*
X131553803Y-109155698D01*
X131553802Y-109155700D01*
X131485066Y-109253865D01*
X131422476Y-109343252D01*
X131422475Y-109343254D01*
X131325718Y-109550750D01*
X131325714Y-109550761D01*
X131266457Y-109771910D01*
X131266456Y-109771918D01*
X131246502Y-109999998D01*
X131246502Y-110000001D01*
X123713498Y-110000001D01*
X123713498Y-110000000D01*
X123693543Y-109771913D01*
X123634284Y-109550757D01*
X123537523Y-109343251D01*
X123406198Y-109155700D01*
X123244300Y-108993802D01*
X123056749Y-108862477D01*
X123021028Y-108845820D01*
X122849249Y-108765718D01*
X122849238Y-108765714D01*
X122628089Y-108706457D01*
X122628081Y-108706456D01*
X122400002Y-108686502D01*
X122399998Y-108686502D01*
X122171918Y-108706456D01*
X122171910Y-108706457D01*
X121950761Y-108765714D01*
X121950750Y-108765718D01*
X121743254Y-108862475D01*
X121743252Y-108862476D01*
X121743251Y-108862477D01*
X121555700Y-108993802D01*
X121555698Y-108993803D01*
X121555695Y-108993806D01*
X121393806Y-109155695D01*
X121393803Y-109155698D01*
X121393802Y-109155700D01*
X121325066Y-109253865D01*
X121262476Y-109343252D01*
X121262475Y-109343254D01*
X121165718Y-109550750D01*
X121165714Y-109550761D01*
X121106457Y-109771910D01*
X121106456Y-109771918D01*
X121086502Y-109999998D01*
X121086502Y-110000001D01*
X121106456Y-110228081D01*
X121106457Y-110228089D01*
X121165715Y-110449240D01*
X121165718Y-110449248D01*
X121170062Y-110458565D01*
X121177640Y-110479578D01*
X121178152Y-110481535D01*
X121584922Y-111680111D01*
X121591500Y-111719961D01*
X121591500Y-114836962D01*
X121571815Y-114904001D01*
X121519011Y-114949756D01*
X121449853Y-114959700D01*
X121398614Y-114940068D01*
X121397915Y-114939601D01*
X121390025Y-114934329D01*
X121118341Y-114789109D01*
X120833732Y-114671219D01*
X120790437Y-114658085D01*
X120731999Y-114619787D01*
X120703543Y-114555974D01*
X120714105Y-114486907D01*
X120738748Y-114451749D01*
X120846198Y-114344300D01*
X120977523Y-114156749D01*
X120978015Y-114155695D01*
X121053506Y-113993802D01*
X121074284Y-113949243D01*
X121133543Y-113728087D01*
X121153498Y-113500000D01*
X121151040Y-113471910D01*
X121143658Y-113387524D01*
X121133543Y-113271913D01*
X121074284Y-113050757D01*
X121070785Y-113043254D01*
X121007131Y-112906747D01*
X120977523Y-112843251D01*
X120846198Y-112655700D01*
X120684300Y-112493802D01*
X120496749Y-112362477D01*
X120496745Y-112362475D01*
X120289249Y-112265718D01*
X120289238Y-112265714D01*
X120068089Y-112206457D01*
X120068081Y-112206456D01*
X119840002Y-112186502D01*
X119839998Y-112186502D01*
X119611918Y-112206456D01*
X119611910Y-112206457D01*
X119390761Y-112265714D01*
X119390750Y-112265718D01*
X119183254Y-112362475D01*
X119183252Y-112362476D01*
X119165282Y-112375059D01*
X118995700Y-112493802D01*
X118995698Y-112493803D01*
X118995695Y-112493806D01*
X118833806Y-112655695D01*
X118833803Y-112655698D01*
X118833802Y-112655700D01*
X118803313Y-112699243D01*
X118702476Y-112843252D01*
X118702475Y-112843254D01*
X118605718Y-113050750D01*
X118605714Y-113050761D01*
X118546457Y-113271910D01*
X118546456Y-113271918D01*
X118526502Y-113499998D01*
X118526502Y-113500001D01*
X118532057Y-113563498D01*
X118546456Y-113728081D01*
X118546929Y-113733481D01*
X118545698Y-113733588D01*
X118538621Y-113797023D01*
X118494561Y-113851249D01*
X118428179Y-113873048D01*
X118370447Y-113860829D01*
X118164441Y-113761616D01*
X118164440Y-113761615D01*
X117922926Y-113677102D01*
X117922924Y-113677101D01*
X117922917Y-113677099D01*
X117673449Y-113620155D01*
X117673448Y-113620154D01*
X117673440Y-113620153D01*
X117419178Y-113591501D01*
X117375984Y-113591501D01*
X117375958Y-113591500D01*
X117370851Y-113591500D01*
X117291233Y-113591500D01*
X117206256Y-113591499D01*
X117206255Y-113591499D01*
X117200143Y-113591499D01*
X117200123Y-113591500D01*
X116744676Y-113591500D01*
X116744656Y-113591499D01*
X116704929Y-113591499D01*
X116704925Y-113591498D01*
X116533106Y-113591498D01*
X116293722Y-113618474D01*
X116293711Y-113618476D01*
X116058839Y-113672085D01*
X115831452Y-113751653D01*
X115831438Y-113751659D01*
X115614393Y-113856182D01*
X115410401Y-113984358D01*
X115410399Y-113984359D01*
X115222039Y-114134570D01*
X115195179Y-114161429D01*
X115195132Y-114161474D01*
X114964625Y-114391983D01*
X114964616Y-114391987D01*
X114828405Y-114528198D01*
X114652240Y-114749103D01*
X114501913Y-114988347D01*
X114379327Y-115242902D01*
X114379325Y-115242906D01*
X114286006Y-115509599D01*
X114286005Y-115509601D01*
X114223132Y-115785070D01*
X114192463Y-116057267D01*
X114165396Y-116121681D01*
X114107801Y-116161236D01*
X114037964Y-116163373D01*
X113981562Y-116131064D01*
X113844304Y-115993806D01*
X113844300Y-115993802D01*
X113656749Y-115862477D01*
X113656745Y-115862475D01*
X113449249Y-115765718D01*
X113449238Y-115765714D01*
X113228089Y-115706457D01*
X113228081Y-115706456D01*
X113000002Y-115686502D01*
X112999998Y-115686502D01*
X112771918Y-115706456D01*
X112771910Y-115706457D01*
X112550761Y-115765714D01*
X112550750Y-115765718D01*
X112343254Y-115862475D01*
X112343252Y-115862476D01*
X112298514Y-115893802D01*
X112155700Y-115993802D01*
X112155698Y-115993803D01*
X112155695Y-115993806D01*
X111993806Y-116155695D01*
X111993803Y-116155698D01*
X111993802Y-116155700D01*
X111939627Y-116233070D01*
X111862476Y-116343252D01*
X111862475Y-116343254D01*
X111765718Y-116550750D01*
X111765714Y-116550761D01*
X111706457Y-116771910D01*
X111706456Y-116771918D01*
X111686502Y-116999998D01*
X111686502Y-117000001D01*
X111706456Y-117228081D01*
X111706457Y-117228089D01*
X111765714Y-117449238D01*
X111765718Y-117449249D01*
X111817344Y-117559961D01*
X111862477Y-117656749D01*
X111993802Y-117844300D01*
X112155700Y-118006198D01*
X112343251Y-118137523D01*
X112371913Y-118150888D01*
X112550750Y-118234281D01*
X112550752Y-118234281D01*
X112550757Y-118234284D01*
X112771913Y-118293543D01*
X112934832Y-118307796D01*
X112999998Y-118313498D01*
X113000000Y-118313498D01*
X113000002Y-118313498D01*
X113057021Y-118308509D01*
X113228087Y-118293543D01*
X113449243Y-118234284D01*
X113656749Y-118137523D01*
X113844300Y-118006198D01*
X113979819Y-117870679D01*
X114041142Y-117837194D01*
X114110834Y-117842178D01*
X114166767Y-117884050D01*
X114191184Y-117949514D01*
X114191500Y-117958360D01*
X114191500Y-121149045D01*
X114171815Y-121216084D01*
X114119011Y-121261839D01*
X114086032Y-121267519D01*
X113400000Y-121953551D01*
X113400000Y-121947339D01*
X113372741Y-121845606D01*
X113320080Y-121754394D01*
X113245606Y-121679920D01*
X113154394Y-121627259D01*
X113052661Y-121600000D01*
X113046448Y-121600000D01*
X113725472Y-120920974D01*
X113652478Y-120869863D01*
X113446331Y-120773735D01*
X113446317Y-120773730D01*
X113226610Y-120714860D01*
X113226599Y-120714858D01*
X113000002Y-120695034D01*
X112999998Y-120695034D01*
X112773400Y-120714858D01*
X112773389Y-120714860D01*
X112553682Y-120773730D01*
X112553673Y-120773734D01*
X112347516Y-120869866D01*
X112347512Y-120869868D01*
X112274526Y-120920973D01*
X112274526Y-120920974D01*
X112953553Y-121600000D01*
X112947339Y-121600000D01*
X112845606Y-121627259D01*
X112754394Y-121679920D01*
X112679920Y-121754394D01*
X112627259Y-121845606D01*
X112600000Y-121947339D01*
X112600000Y-121953552D01*
X111920974Y-121274526D01*
X111920973Y-121274526D01*
X111869868Y-121347512D01*
X111869866Y-121347516D01*
X111773734Y-121553673D01*
X111773730Y-121553682D01*
X111714860Y-121773389D01*
X111714858Y-121773400D01*
X111695034Y-121999997D01*
X111695034Y-122000002D01*
X111714858Y-122226599D01*
X111714860Y-122226610D01*
X111773730Y-122446317D01*
X111773735Y-122446331D01*
X111869863Y-122652478D01*
X111920974Y-122725472D01*
X112600000Y-122046446D01*
X112600000Y-122052661D01*
X112627259Y-122154394D01*
X112679920Y-122245606D01*
X112754394Y-122320080D01*
X112845606Y-122372741D01*
X112947339Y-122400000D01*
X112953553Y-122400000D01*
X112274526Y-123079025D01*
X112347513Y-123130132D01*
X112347521Y-123130136D01*
X112553668Y-123226264D01*
X112553682Y-123226269D01*
X112773389Y-123285139D01*
X112773400Y-123285141D01*
X112999998Y-123304966D01*
X113000002Y-123304966D01*
X113226599Y-123285141D01*
X113226610Y-123285139D01*
X113446317Y-123226269D01*
X113446331Y-123226264D01*
X113652478Y-123130136D01*
X113725471Y-123079024D01*
X113046447Y-122400000D01*
X113052661Y-122400000D01*
X113154394Y-122372741D01*
X113245606Y-122320080D01*
X113320080Y-122245606D01*
X113372741Y-122154394D01*
X113400000Y-122052661D01*
X113400000Y-122046447D01*
X114093171Y-122739618D01*
X114108334Y-122742666D01*
X114158517Y-122791281D01*
X114174451Y-122859310D01*
X114171216Y-122881374D01*
X114135466Y-123030288D01*
X114129454Y-123048793D01*
X114065374Y-123203501D01*
X114056540Y-123220838D01*
X113969050Y-123363613D01*
X113957613Y-123379356D01*
X113845844Y-123510222D01*
X113839234Y-123517372D01*
X113597553Y-123759054D01*
X113590403Y-123765664D01*
X113459347Y-123877595D01*
X113443610Y-123889029D01*
X113438599Y-123892100D01*
X113371154Y-123910347D01*
X113344266Y-123906805D01*
X112468116Y-123691901D01*
X112454498Y-123687115D01*
X112454334Y-123687568D01*
X112449252Y-123685718D01*
X112228088Y-123626457D01*
X112228081Y-123626456D01*
X112000002Y-123606502D01*
X111999998Y-123606502D01*
X111771918Y-123626456D01*
X111771910Y-123626457D01*
X111550761Y-123685714D01*
X111550750Y-123685718D01*
X111343254Y-123782475D01*
X111343252Y-123782476D01*
X111343251Y-123782477D01*
X111155700Y-123913802D01*
X111155698Y-123913803D01*
X111155695Y-123913806D01*
X110993806Y-124075695D01*
X110993803Y-124075698D01*
X110993802Y-124075700D01*
X110929566Y-124167438D01*
X110862476Y-124263252D01*
X110862475Y-124263254D01*
X110765718Y-124470750D01*
X110765714Y-124470761D01*
X110706457Y-124691910D01*
X110706456Y-124691918D01*
X110686502Y-124919998D01*
X110686502Y-124920001D01*
X106668120Y-124920001D01*
X106675119Y-124840002D01*
X106675119Y-124839997D01*
X106654684Y-124606428D01*
X106654683Y-124606421D01*
X106593996Y-124379938D01*
X106494907Y-124167442D01*
X106494906Y-124167440D01*
X106437745Y-124085806D01*
X106437745Y-124085805D01*
X105861952Y-124661599D01*
X105851837Y-124623848D01*
X105778111Y-124496152D01*
X105673848Y-124391889D01*
X105546152Y-124318163D01*
X105508400Y-124308047D01*
X106084193Y-123732253D01*
X106004945Y-123676763D01*
X105961320Y-123622186D01*
X105954126Y-123552688D01*
X105985649Y-123490333D01*
X106004945Y-123473613D01*
X106033248Y-123453795D01*
X106200110Y-123336957D01*
X106366957Y-123170110D01*
X106502296Y-122976826D01*
X106602016Y-122762976D01*
X106663086Y-122535059D01*
X106683651Y-122300000D01*
X106663086Y-122064941D01*
X106602016Y-121837024D01*
X106502296Y-121623175D01*
X106502294Y-121623172D01*
X106502293Y-121623170D01*
X106366956Y-121429888D01*
X106200111Y-121263044D01*
X106200105Y-121263039D01*
X106012354Y-121131575D01*
X105968729Y-121076998D01*
X105961535Y-121007500D01*
X105993058Y-120945145D01*
X106012354Y-120928425D01*
X106022997Y-120920973D01*
X106200110Y-120796957D01*
X106366957Y-120630110D01*
X106388983Y-120598654D01*
X107791500Y-120598654D01*
X107798011Y-120659202D01*
X107798011Y-120659204D01*
X107840730Y-120773734D01*
X107849111Y-120796204D01*
X107936739Y-120913261D01*
X108053796Y-121000889D01*
X108190799Y-121051989D01*
X108218050Y-121054918D01*
X108251345Y-121058499D01*
X108251362Y-121058500D01*
X109948638Y-121058500D01*
X109948654Y-121058499D01*
X109975692Y-121055591D01*
X110009201Y-121051989D01*
X110146204Y-121000889D01*
X110263261Y-120913261D01*
X110350889Y-120796204D01*
X110401989Y-120659201D01*
X110405591Y-120625692D01*
X110408499Y-120598654D01*
X110408500Y-120598637D01*
X110408500Y-118901362D01*
X110408499Y-118901345D01*
X110405157Y-118870270D01*
X110401989Y-118840799D01*
X110350889Y-118703796D01*
X110263261Y-118586739D01*
X110146204Y-118499111D01*
X110121777Y-118490000D01*
X110009203Y-118448011D01*
X109948654Y-118441500D01*
X109948638Y-118441500D01*
X108251362Y-118441500D01*
X108251345Y-118441500D01*
X108190797Y-118448011D01*
X108190795Y-118448011D01*
X108053795Y-118499111D01*
X107936739Y-118586739D01*
X107849111Y-118703795D01*
X107798011Y-118840795D01*
X107798011Y-118840797D01*
X107791500Y-118901345D01*
X107791500Y-120598654D01*
X106388983Y-120598654D01*
X106502296Y-120436826D01*
X106602016Y-120222976D01*
X106663086Y-119995059D01*
X106683651Y-119760000D01*
X106663086Y-119524941D01*
X106602016Y-119297024D01*
X106502296Y-119083175D01*
X106502294Y-119083172D01*
X106502293Y-119083170D01*
X106366956Y-118889888D01*
X106200111Y-118723044D01*
X106200105Y-118723039D01*
X106012354Y-118591575D01*
X105968729Y-118536998D01*
X105961535Y-118467500D01*
X105993058Y-118405145D01*
X106012354Y-118388425D01*
X106119361Y-118313498D01*
X106200110Y-118256957D01*
X106366957Y-118090110D01*
X106502296Y-117896826D01*
X106602016Y-117682976D01*
X106663086Y-117455059D01*
X106682943Y-117228089D01*
X106683651Y-117220001D01*
X106683651Y-117219998D01*
X106673859Y-117108081D01*
X106663086Y-116984941D01*
X106606007Y-116771918D01*
X106602018Y-116757031D01*
X106602017Y-116757030D01*
X106602016Y-116757024D01*
X106502296Y-116543175D01*
X106502294Y-116543172D01*
X106502293Y-116543170D01*
X106366956Y-116349888D01*
X106200111Y-116183044D01*
X106200105Y-116183039D01*
X106035936Y-116068087D01*
X106012353Y-116051574D01*
X105968729Y-115996998D01*
X105961535Y-115927500D01*
X105993058Y-115865145D01*
X106012354Y-115848425D01*
X106200110Y-115716957D01*
X106366957Y-115550110D01*
X106502296Y-115356826D01*
X106554012Y-115245917D01*
X106563430Y-115229229D01*
X106573597Y-115214084D01*
X106708166Y-114934329D01*
X106834727Y-114671219D01*
X107152354Y-114010901D01*
X107176414Y-113976976D01*
X110337747Y-110815643D01*
X110340592Y-110812889D01*
X110728542Y-110449533D01*
X110734598Y-110444222D01*
X111143845Y-110108362D01*
X111150234Y-110103459D01*
X111580557Y-109795093D01*
X111587277Y-109790602D01*
X112036855Y-109511036D01*
X112043849Y-109506998D01*
X112510740Y-109257439D01*
X112517959Y-109253879D01*
X113000182Y-109035384D01*
X113007664Y-109032285D01*
X113503108Y-108845813D01*
X113510750Y-108843217D01*
X114017372Y-108689534D01*
X114025177Y-108687443D01*
X114540741Y-108567229D01*
X114548667Y-108565652D01*
X114946300Y-108500001D01*
X136186502Y-108500001D01*
X136206456Y-108728081D01*
X136206457Y-108728089D01*
X136265714Y-108949238D01*
X136265718Y-108949249D01*
X136361988Y-109155700D01*
X136362477Y-109156749D01*
X136493802Y-109344300D01*
X136655700Y-109506198D01*
X136843251Y-109637523D01*
X136968091Y-109695736D01*
X137050750Y-109734281D01*
X137050752Y-109734281D01*
X137050757Y-109734284D01*
X137271913Y-109793543D01*
X137434832Y-109807796D01*
X137499998Y-109813498D01*
X137500000Y-109813498D01*
X137500002Y-109813498D01*
X137557021Y-109808509D01*
X137728087Y-109793543D01*
X137949243Y-109734284D01*
X138156749Y-109637523D01*
X138344300Y-109506198D01*
X138506198Y-109344300D01*
X138637523Y-109156749D01*
X138734284Y-108949243D01*
X138793543Y-108728087D01*
X138813498Y-108500000D01*
X138811639Y-108478756D01*
X138807030Y-108426072D01*
X138793543Y-108271913D01*
X138734284Y-108050757D01*
X138637523Y-107843251D01*
X138506198Y-107655700D01*
X138344300Y-107493802D01*
X138156749Y-107362477D01*
X138136640Y-107353100D01*
X137949249Y-107265718D01*
X137949238Y-107265714D01*
X137890597Y-107250001D01*
X153186502Y-107250001D01*
X153206456Y-107478081D01*
X153206457Y-107478089D01*
X153265714Y-107699238D01*
X153265718Y-107699249D01*
X153332868Y-107843252D01*
X153362477Y-107906749D01*
X153493802Y-108094300D01*
X153655700Y-108256198D01*
X153843251Y-108387523D01*
X153925635Y-108425939D01*
X154050750Y-108484281D01*
X154050752Y-108484281D01*
X154050757Y-108484284D01*
X154271913Y-108543543D01*
X154434832Y-108557796D01*
X154499998Y-108563498D01*
X154500000Y-108563498D01*
X154500002Y-108563498D01*
X154557021Y-108558509D01*
X154728087Y-108543543D01*
X154949243Y-108484284D01*
X155156749Y-108387523D01*
X155344300Y-108256198D01*
X155506198Y-108094300D01*
X155637523Y-107906749D01*
X155734284Y-107699243D01*
X155793543Y-107478087D01*
X155813498Y-107250000D01*
X155809688Y-107206457D01*
X155795527Y-107044594D01*
X155793543Y-107021913D01*
X155734284Y-106800757D01*
X155729967Y-106791500D01*
X155673522Y-106670451D01*
X155637523Y-106593251D01*
X155506198Y-106405700D01*
X155344300Y-106243802D01*
X155156749Y-106112477D01*
X155117777Y-106094304D01*
X154949249Y-106015718D01*
X154949238Y-106015714D01*
X154728089Y-105956457D01*
X154728081Y-105956456D01*
X154500002Y-105936502D01*
X154499998Y-105936502D01*
X154271918Y-105956456D01*
X154271910Y-105956457D01*
X154050761Y-106015714D01*
X154050750Y-106015718D01*
X153843254Y-106112475D01*
X153843252Y-106112476D01*
X153790208Y-106149618D01*
X153655700Y-106243802D01*
X153655698Y-106243803D01*
X153655695Y-106243806D01*
X153493806Y-106405695D01*
X153493803Y-106405698D01*
X153493802Y-106405700D01*
X153438777Y-106484284D01*
X153362476Y-106593252D01*
X153362475Y-106593254D01*
X153265718Y-106800750D01*
X153265714Y-106800761D01*
X153206457Y-107021910D01*
X153206456Y-107021918D01*
X153186502Y-107249998D01*
X153186502Y-107250001D01*
X137890597Y-107250001D01*
X137728089Y-107206457D01*
X137728081Y-107206456D01*
X137500002Y-107186502D01*
X137499998Y-107186502D01*
X137271918Y-107206456D01*
X137271910Y-107206457D01*
X137050761Y-107265714D01*
X137050750Y-107265718D01*
X136843254Y-107362475D01*
X136843252Y-107362476D01*
X136774529Y-107410597D01*
X136655700Y-107493802D01*
X136655698Y-107493803D01*
X136655695Y-107493806D01*
X136493806Y-107655695D01*
X136493803Y-107655698D01*
X136493802Y-107655700D01*
X136463313Y-107699243D01*
X136362476Y-107843252D01*
X136362475Y-107843254D01*
X136265718Y-108050750D01*
X136265714Y-108050761D01*
X136206457Y-108271910D01*
X136206456Y-108271918D01*
X136186502Y-108499998D01*
X136186502Y-108500001D01*
X114946300Y-108500001D01*
X115071009Y-108479411D01*
X115078996Y-108478360D01*
X115605842Y-108426469D01*
X115613914Y-108425939D01*
X116144564Y-108408565D01*
X116148622Y-108408500D01*
X127972363Y-108408500D01*
X128005965Y-108408500D01*
X128006009Y-108408512D01*
X128057339Y-108408511D01*
X128057339Y-108408512D01*
X128223623Y-108408510D01*
X128554924Y-108379522D01*
X128882438Y-108321771D01*
X129203672Y-108235695D01*
X129516183Y-108121950D01*
X129817591Y-107981401D01*
X130009598Y-107870546D01*
X130105599Y-107815121D01*
X130156493Y-107779485D01*
X130378026Y-107624368D01*
X130632789Y-107410600D01*
X130680076Y-107363312D01*
X130680086Y-107363305D01*
X130748459Y-107294933D01*
X130752338Y-107291218D01*
X131017507Y-107048232D01*
X131025745Y-107041319D01*
X131308924Y-106824026D01*
X131317748Y-106817848D01*
X131618770Y-106626073D01*
X131628097Y-106620688D01*
X131944670Y-106455889D01*
X131954457Y-106451324D01*
X132284194Y-106314740D01*
X132294340Y-106311047D01*
X132634716Y-106203724D01*
X132645142Y-106200931D01*
X132993594Y-106123678D01*
X133004213Y-106121806D01*
X133358068Y-106075219D01*
X133368802Y-106074279D01*
X133708104Y-106059462D01*
X133727452Y-106058618D01*
X133732861Y-106058500D01*
X134110041Y-106058500D01*
X134149890Y-106065077D01*
X135348462Y-106471846D01*
X135355421Y-106473925D01*
X135372324Y-106480351D01*
X135380757Y-106484284D01*
X135601913Y-106543543D01*
X135764832Y-106557796D01*
X135829998Y-106563498D01*
X135830000Y-106563498D01*
X135830002Y-106563498D01*
X135887021Y-106558509D01*
X136058087Y-106543543D01*
X136279243Y-106484284D01*
X136288562Y-106479937D01*
X136309634Y-106472342D01*
X136311518Y-106471849D01*
X136311536Y-106471846D01*
X137510108Y-106065077D01*
X137549958Y-106058500D01*
X142633046Y-106058500D01*
X142633607Y-106058471D01*
X142713630Y-106058473D01*
X143044930Y-106029492D01*
X143372443Y-105971747D01*
X143693677Y-105885677D01*
X143693687Y-105885673D01*
X143693695Y-105885671D01*
X143881182Y-105817433D01*
X144006186Y-105771937D01*
X144307594Y-105631393D01*
X144595605Y-105465113D01*
X144868028Y-105274365D01*
X144971400Y-105187626D01*
X145003570Y-105168091D01*
X145992168Y-104757867D01*
X146041346Y-104734327D01*
X146041679Y-104734077D01*
X146063576Y-104720969D01*
X146156749Y-104677523D01*
X146344300Y-104546198D01*
X146506198Y-104384300D01*
X146637523Y-104196749D01*
X146734284Y-103989243D01*
X146793543Y-103768087D01*
X146813498Y-103540001D01*
X148686502Y-103540001D01*
X148706456Y-103768081D01*
X148706457Y-103768089D01*
X148765714Y-103989238D01*
X148765718Y-103989249D01*
X148862475Y-104196745D01*
X148862477Y-104196749D01*
X148993802Y-104384300D01*
X149155700Y-104546198D01*
X149343251Y-104677523D01*
X149436422Y-104720969D01*
X149550750Y-104774281D01*
X149550752Y-104774281D01*
X149550757Y-104774284D01*
X149771913Y-104833543D01*
X149934832Y-104847796D01*
X149999998Y-104853498D01*
X150000000Y-104853498D01*
X150000002Y-104853498D01*
X150057021Y-104848509D01*
X150228087Y-104833543D01*
X150449243Y-104774284D01*
X150656749Y-104677523D01*
X150844300Y-104546198D01*
X151006198Y-104384300D01*
X151137523Y-104196749D01*
X151234284Y-103989243D01*
X151293543Y-103768087D01*
X151313498Y-103540000D01*
X151309998Y-103500000D01*
X151293543Y-103311918D01*
X151293543Y-103311913D01*
X151234284Y-103090757D01*
X151137523Y-102883251D01*
X151006198Y-102695700D01*
X150844300Y-102533802D01*
X150656749Y-102402477D01*
X150656745Y-102402475D01*
X150449249Y-102305718D01*
X150449238Y-102305714D01*
X150228089Y-102246457D01*
X150228081Y-102246456D01*
X150000002Y-102226502D01*
X149999998Y-102226502D01*
X149771918Y-102246456D01*
X149771910Y-102246457D01*
X149550761Y-102305714D01*
X149550750Y-102305718D01*
X149343254Y-102402475D01*
X149343252Y-102402476D01*
X149343251Y-102402477D01*
X149155700Y-102533802D01*
X149155698Y-102533803D01*
X149155695Y-102533806D01*
X148993806Y-102695695D01*
X148862476Y-102883252D01*
X148862475Y-102883254D01*
X148765718Y-103090750D01*
X148765714Y-103090761D01*
X148706457Y-103311910D01*
X148706456Y-103311918D01*
X148686502Y-103539998D01*
X148686502Y-103540001D01*
X146813498Y-103540001D01*
X146813498Y-103540000D01*
X146809998Y-103500000D01*
X146793543Y-103311918D01*
X146793543Y-103311913D01*
X146734284Y-103090757D01*
X146637523Y-102883251D01*
X146506198Y-102695700D01*
X146344300Y-102533802D01*
X146156749Y-102402477D01*
X146156745Y-102402475D01*
X145949249Y-102305718D01*
X145949238Y-102305714D01*
X145728089Y-102246457D01*
X145728081Y-102246456D01*
X145500002Y-102226502D01*
X145499998Y-102226502D01*
X145271918Y-102246456D01*
X145271910Y-102246457D01*
X145050761Y-102305714D01*
X145050750Y-102305718D01*
X144843254Y-102402475D01*
X144843252Y-102402476D01*
X144843251Y-102402477D01*
X144655700Y-102533802D01*
X144655698Y-102533803D01*
X144655695Y-102533806D01*
X144493806Y-102695695D01*
X144362475Y-102883253D01*
X144295809Y-103026218D01*
X144291278Y-103035003D01*
X144278423Y-103057659D01*
X144278416Y-103057673D01*
X143940967Y-103919163D01*
X143898188Y-103974405D01*
X143897263Y-103975067D01*
X143718992Y-104101554D01*
X143707224Y-104108948D01*
X143620724Y-104156755D01*
X143504322Y-104221086D01*
X143491794Y-104227119D01*
X143277599Y-104315839D01*
X143264473Y-104320431D01*
X143041712Y-104384604D01*
X143028156Y-104387698D01*
X142799606Y-104426528D01*
X142785787Y-104428085D01*
X142550332Y-104441304D01*
X142543381Y-104441499D01*
X142456280Y-104441499D01*
X142456260Y-104441500D01*
X142426339Y-104441500D01*
X142359300Y-104421815D01*
X142313545Y-104369011D01*
X142303601Y-104299853D01*
X142324765Y-104246376D01*
X142326565Y-104243806D01*
X142387523Y-104156749D01*
X142484284Y-103949243D01*
X142543543Y-103728087D01*
X142563498Y-103500000D01*
X142543543Y-103271913D01*
X142484284Y-103050757D01*
X142472841Y-103026218D01*
X142445736Y-102968091D01*
X142387523Y-102843251D01*
X142256198Y-102655700D01*
X142094300Y-102493802D01*
X141906749Y-102362477D01*
X141906745Y-102362475D01*
X141699249Y-102265718D01*
X141699238Y-102265714D01*
X141478089Y-102206457D01*
X141478081Y-102206456D01*
X141250002Y-102186502D01*
X141249998Y-102186502D01*
X141021918Y-102206456D01*
X141021910Y-102206457D01*
X140800761Y-102265714D01*
X140800750Y-102265718D01*
X140593254Y-102362475D01*
X140593252Y-102362476D01*
X140593251Y-102362477D01*
X140405700Y-102493802D01*
X140405698Y-102493803D01*
X140405695Y-102493806D01*
X140243806Y-102655695D01*
X140112476Y-102843252D01*
X140112475Y-102843254D01*
X140015718Y-103050750D01*
X140015714Y-103050761D01*
X139956457Y-103271910D01*
X139956456Y-103271918D01*
X139936502Y-103499998D01*
X139936502Y-103500001D01*
X139956456Y-103728081D01*
X139956457Y-103728089D01*
X140015714Y-103949238D01*
X140015718Y-103949249D01*
X140112475Y-104156745D01*
X140112477Y-104156749D01*
X140173432Y-104243802D01*
X140175235Y-104246376D01*
X140197563Y-104312582D01*
X140180553Y-104380349D01*
X140129606Y-104428162D01*
X140073661Y-104441500D01*
X137549961Y-104441500D01*
X137510111Y-104434922D01*
X137490192Y-104428162D01*
X136559996Y-104112475D01*
X136311550Y-104028158D01*
X136311547Y-104028157D01*
X136311535Y-104028153D01*
X136304559Y-104026068D01*
X136287673Y-104019647D01*
X136279241Y-104015715D01*
X136058089Y-103956457D01*
X136058081Y-103956456D01*
X135830002Y-103936502D01*
X135829998Y-103936502D01*
X135601918Y-103956456D01*
X135601911Y-103956457D01*
X135380748Y-104015718D01*
X135380747Y-104015718D01*
X135371423Y-104020066D01*
X135350430Y-104027638D01*
X135348472Y-104028150D01*
X134762195Y-104227119D01*
X134169806Y-104428162D01*
X134149887Y-104434922D01*
X134110037Y-104441500D01*
X133782148Y-104441500D01*
X133782056Y-104441473D01*
X133501629Y-104441473D01*
X133501618Y-104441474D01*
X133044761Y-104477433D01*
X132592137Y-104549125D01*
X132592134Y-104549125D01*
X132592132Y-104549126D01*
X132146521Y-104656111D01*
X132146516Y-104656112D01*
X131710672Y-104797730D01*
X131287282Y-104973107D01*
X130878985Y-105181148D01*
X130878956Y-105181164D01*
X130488235Y-105420601D01*
X130117471Y-105689980D01*
X130117470Y-105689981D01*
X129769010Y-105987598D01*
X129644133Y-106112477D01*
X129644131Y-106112479D01*
X129609472Y-106147137D01*
X129604418Y-106151914D01*
X129428932Y-106308736D01*
X129418061Y-106317406D01*
X129228979Y-106451565D01*
X129217205Y-106458963D01*
X129014296Y-106571107D01*
X129001768Y-106577140D01*
X128787583Y-106665858D01*
X128774458Y-106670451D01*
X128551679Y-106734633D01*
X128538123Y-106737727D01*
X128309564Y-106776563D01*
X128295746Y-106778120D01*
X128061009Y-106791305D01*
X128054055Y-106791500D01*
X125903990Y-106791500D01*
X125836951Y-106771815D01*
X125791196Y-106719011D01*
X125781252Y-106649853D01*
X125810277Y-106586297D01*
X125869055Y-106548523D01*
X125893180Y-106543972D01*
X125898087Y-106543543D01*
X126119243Y-106484284D01*
X126326749Y-106387523D01*
X126514300Y-106256198D01*
X126676198Y-106094300D01*
X126807523Y-105906749D01*
X126904284Y-105699243D01*
X126963543Y-105478087D01*
X126983498Y-105250000D01*
X126963543Y-105021913D01*
X126904284Y-104800757D01*
X126902872Y-104797730D01*
X126807524Y-104593254D01*
X126807523Y-104593252D01*
X126807523Y-104593251D01*
X126676198Y-104405700D01*
X126514300Y-104243802D01*
X126326749Y-104112477D01*
X126311967Y-104105584D01*
X126119249Y-104015718D01*
X126119238Y-104015714D01*
X125898089Y-103956457D01*
X125898081Y-103956456D01*
X125670002Y-103936502D01*
X125669998Y-103936502D01*
X125441918Y-103956456D01*
X125441910Y-103956457D01*
X125220761Y-104015714D01*
X125220750Y-104015718D01*
X125013254Y-104112475D01*
X125013252Y-104112476D01*
X125013251Y-104112477D01*
X124825700Y-104243802D01*
X124825698Y-104243803D01*
X124825695Y-104243806D01*
X124663806Y-104405695D01*
X124663803Y-104405698D01*
X124663802Y-104405700D01*
X124613574Y-104477433D01*
X124532476Y-104593252D01*
X124532475Y-104593254D01*
X124435718Y-104800750D01*
X124435714Y-104800761D01*
X124376457Y-105021910D01*
X124376456Y-105021918D01*
X124356502Y-105249998D01*
X124356502Y-105250001D01*
X124376456Y-105478081D01*
X124376457Y-105478089D01*
X124435714Y-105699238D01*
X124435718Y-105699249D01*
X124469614Y-105771939D01*
X124532477Y-105906749D01*
X124663802Y-106094300D01*
X124825700Y-106256198D01*
X125013251Y-106387523D01*
X125138091Y-106445736D01*
X125220750Y-106484281D01*
X125220752Y-106484281D01*
X125220757Y-106484284D01*
X125441913Y-106543543D01*
X125446818Y-106543972D01*
X125511886Y-106569425D01*
X125552865Y-106626016D01*
X125556743Y-106695778D01*
X125522289Y-106756562D01*
X125460442Y-106789069D01*
X125436010Y-106791500D01*
X116198441Y-106791500D01*
X116198386Y-106791484D01*
X115850025Y-106791484D01*
X115850004Y-106791485D01*
X115256998Y-106827358D01*
X114667239Y-106898969D01*
X114082867Y-107006061D01*
X113817191Y-107071545D01*
X113506036Y-107148240D01*
X113506027Y-107148242D01*
X113506014Y-107148246D01*
X112938842Y-107324985D01*
X112383350Y-107535656D01*
X111841595Y-107779481D01*
X111315555Y-108055571D01*
X111315541Y-108055579D01*
X110807137Y-108362920D01*
X110807112Y-108362936D01*
X110318197Y-108700411D01*
X109850538Y-109066798D01*
X109850537Y-109066799D01*
X109405854Y-109460755D01*
X109405818Y-109460789D01*
X109252106Y-109614502D01*
X106875139Y-111991467D01*
X106813816Y-112024952D01*
X106744124Y-112019968D01*
X106688191Y-111978096D01*
X106663930Y-111914590D01*
X106663086Y-111904941D01*
X106602016Y-111677024D01*
X106502296Y-111463175D01*
X106502294Y-111463172D01*
X106502293Y-111463170D01*
X106366956Y-111269888D01*
X106200111Y-111103044D01*
X106200104Y-111103039D01*
X106006830Y-110967706D01*
X106006826Y-110967704D01*
X105982707Y-110956457D01*
X105792976Y-110867984D01*
X105792972Y-110867983D01*
X105792968Y-110867981D01*
X105565064Y-110806915D01*
X105565060Y-110806914D01*
X105565059Y-110806914D01*
X105565058Y-110806913D01*
X105565053Y-110806913D01*
X105330002Y-110786349D01*
X105329998Y-110786349D01*
X105094946Y-110806913D01*
X105094935Y-110806915D01*
X104867031Y-110867981D01*
X104867022Y-110867985D01*
X104653174Y-110967704D01*
X104653170Y-110967706D01*
X104459888Y-111103043D01*
X104293043Y-111269888D01*
X104157706Y-111463170D01*
X104157704Y-111463174D01*
X104057985Y-111677022D01*
X104057981Y-111677031D01*
X103996915Y-111904935D01*
X103996913Y-111904946D01*
X103976349Y-112139998D01*
X103976349Y-112140001D01*
X103996913Y-112375053D01*
X103996915Y-112375064D01*
X104057981Y-112602968D01*
X104057983Y-112602972D01*
X104057984Y-112602976D01*
X104082570Y-112655700D01*
X104157704Y-112816826D01*
X104157706Y-112816830D01*
X104265860Y-112971288D01*
X104293043Y-113010110D01*
X104459890Y-113176957D01*
X104647646Y-113308425D01*
X104691270Y-113363002D01*
X104698463Y-113432501D01*
X104666941Y-113494855D01*
X104647646Y-113511575D01*
X104459885Y-113643046D01*
X104293043Y-113809888D01*
X104157706Y-114003170D01*
X104157704Y-114003174D01*
X104057985Y-114217022D01*
X104057981Y-114217031D01*
X103996915Y-114444935D01*
X103996913Y-114444946D01*
X103976349Y-114679998D01*
X103976349Y-114680001D01*
X103996913Y-114915053D01*
X103996915Y-114915064D01*
X104057981Y-115142968D01*
X104057983Y-115142972D01*
X104057984Y-115142976D01*
X104104582Y-115242906D01*
X104157704Y-115356826D01*
X104157706Y-115356830D01*
X104222415Y-115449243D01*
X104293043Y-115550110D01*
X104459890Y-115716957D01*
X104647646Y-115848425D01*
X104691270Y-115903002D01*
X104698463Y-115972501D01*
X104666941Y-116034855D01*
X104647646Y-116051575D01*
X104459885Y-116183046D01*
X104293043Y-116349888D01*
X104157706Y-116543170D01*
X104157704Y-116543174D01*
X104057985Y-116757022D01*
X104057981Y-116757031D01*
X103996915Y-116984935D01*
X103996913Y-116984946D01*
X103976349Y-117219998D01*
X103976349Y-117220001D01*
X103996913Y-117455053D01*
X103996915Y-117455064D01*
X104057981Y-117682968D01*
X104057983Y-117682972D01*
X104057984Y-117682976D01*
X104151746Y-117884050D01*
X104157704Y-117896826D01*
X104157706Y-117896830D01*
X104234287Y-118006198D01*
X104293043Y-118090110D01*
X104459890Y-118256957D01*
X104540639Y-118313498D01*
X104647646Y-118388425D01*
X104691270Y-118443002D01*
X104698463Y-118512501D01*
X104666941Y-118574855D01*
X104647646Y-118591575D01*
X104459885Y-118723046D01*
X104293043Y-118889888D01*
X104157706Y-119083170D01*
X104157704Y-119083174D01*
X104157704Y-119083175D01*
X104065362Y-119281203D01*
X104057985Y-119297022D01*
X104057981Y-119297031D01*
X103996915Y-119524935D01*
X103996913Y-119524946D01*
X103976349Y-119759998D01*
X103976349Y-119760001D01*
X103996913Y-119995053D01*
X103996915Y-119995064D01*
X104057981Y-120222968D01*
X104057983Y-120222972D01*
X104057984Y-120222976D01*
X104125002Y-120366696D01*
X104157704Y-120436826D01*
X104157706Y-120436830D01*
X104265860Y-120591288D01*
X104293043Y-120630110D01*
X104459890Y-120796957D01*
X104637003Y-120920973D01*
X104647646Y-120928425D01*
X104691270Y-120983002D01*
X104698463Y-121052501D01*
X104666941Y-121114855D01*
X104647646Y-121131575D01*
X104459885Y-121263046D01*
X104293043Y-121429888D01*
X104157706Y-121623170D01*
X104157704Y-121623174D01*
X104057985Y-121837022D01*
X104057981Y-121837031D01*
X103996915Y-122064935D01*
X103996913Y-122064946D01*
X103976349Y-122299998D01*
X103976349Y-122300001D01*
X103996913Y-122535053D01*
X103996915Y-122535064D01*
X104057981Y-122762968D01*
X104057983Y-122762972D01*
X104057984Y-122762976D01*
X104113194Y-122881374D01*
X104157704Y-122976826D01*
X104157706Y-122976830D01*
X104232855Y-123084153D01*
X104293043Y-123170110D01*
X104459890Y-123336957D01*
X104653174Y-123472296D01*
X104655055Y-123473613D01*
X104698679Y-123528190D01*
X104705872Y-123597689D01*
X104674350Y-123660043D01*
X104655054Y-123676763D01*
X104575806Y-123732252D01*
X104575805Y-123732252D01*
X105151600Y-124308047D01*
X105113848Y-124318163D01*
X104986152Y-124391889D01*
X104881889Y-124496152D01*
X104808163Y-124623848D01*
X104798047Y-124661600D01*
X104222252Y-124085805D01*
X104165094Y-124167438D01*
X104066003Y-124379938D01*
X104005316Y-124606421D01*
X104005315Y-124606428D01*
X103984881Y-124839997D01*
X103984881Y-124840002D01*
X104005315Y-125073571D01*
X104005316Y-125073578D01*
X104066000Y-125300053D01*
X104066003Y-125300059D01*
X104165093Y-125512559D01*
X104222253Y-125594192D01*
X104798047Y-125018399D01*
X104808163Y-125056152D01*
X104881889Y-125183848D01*
X104986152Y-125288111D01*
X105113848Y-125361837D01*
X105151599Y-125371952D01*
X104575805Y-125947745D01*
X104655056Y-126003237D01*
X104698680Y-126057814D01*
X104705873Y-126127313D01*
X104674351Y-126189667D01*
X104655055Y-126206387D01*
X104459888Y-126343043D01*
X104293043Y-126509888D01*
X104157706Y-126703170D01*
X104157704Y-126703174D01*
X104057985Y-126917022D01*
X104057981Y-126917031D01*
X103996915Y-127144935D01*
X103996913Y-127144946D01*
X103976349Y-127379998D01*
X103976349Y-127380001D01*
X103996913Y-127615053D01*
X103996915Y-127615064D01*
X104057981Y-127842968D01*
X104057983Y-127842972D01*
X104057984Y-127842976D01*
X104106998Y-127948087D01*
X104157704Y-128056826D01*
X104157706Y-128056830D01*
X104236416Y-128169238D01*
X104293043Y-128250110D01*
X104459890Y-128416957D01*
X104626865Y-128533874D01*
X104647646Y-128548425D01*
X104691270Y-128603002D01*
X104698463Y-128672501D01*
X104666941Y-128734855D01*
X104647646Y-128751575D01*
X104459885Y-128883046D01*
X104293043Y-129049888D01*
X104157706Y-129243170D01*
X104157704Y-129243174D01*
X104057985Y-129457022D01*
X104057981Y-129457031D01*
X103996915Y-129684935D01*
X103996913Y-129684946D01*
X103976349Y-129919998D01*
X103976349Y-129920001D01*
X103996913Y-130155053D01*
X103996915Y-130155064D01*
X104057981Y-130382968D01*
X104057983Y-130382972D01*
X104057984Y-130382976D01*
X104147126Y-130574142D01*
X104157704Y-130596826D01*
X104157706Y-130596830D01*
X104171829Y-130616999D01*
X104293043Y-130790110D01*
X104459890Y-130956957D01*
X104647646Y-131088425D01*
X104691270Y-131143002D01*
X104698463Y-131212501D01*
X104666941Y-131274855D01*
X104647646Y-131291575D01*
X104459885Y-131423046D01*
X104293043Y-131589888D01*
X104157706Y-131783170D01*
X104157704Y-131783174D01*
X104077431Y-131955319D01*
X104059487Y-131993802D01*
X104057985Y-131997022D01*
X104057981Y-131997031D01*
X103996915Y-132224935D01*
X103996913Y-132224946D01*
X103976349Y-132459998D01*
X103976349Y-132460001D01*
X103996913Y-132695053D01*
X103996915Y-132695064D01*
X104057981Y-132922968D01*
X104057983Y-132922972D01*
X104057984Y-132922976D01*
X104147126Y-133114142D01*
X104157704Y-133136826D01*
X104157706Y-133136830D01*
X104221607Y-133228089D01*
X104293043Y-133330110D01*
X104459890Y-133496957D01*
X104613272Y-133604356D01*
X104647646Y-133628425D01*
X104691270Y-133683002D01*
X104698463Y-133752501D01*
X104666941Y-133814855D01*
X104647646Y-133831575D01*
X104459885Y-133963046D01*
X104293043Y-134129888D01*
X104157706Y-134323170D01*
X104157704Y-134323174D01*
X104057985Y-134537022D01*
X104057981Y-134537031D01*
X103996915Y-134764935D01*
X103996913Y-134764946D01*
X103976349Y-134999998D01*
X103976349Y-135000001D01*
X100300500Y-135000001D01*
X100300500Y-100424500D01*
X100320185Y-100357461D01*
X100372989Y-100311706D01*
X100424500Y-100300500D01*
X160575500Y-100300500D01*
X160642539Y-100320185D01*
G37*
G04 #@! TD.AperFunction*
G04 #@! TA.AperFunction,Conductor*
G36*
X148504687Y-130088545D02*
G01*
X149156211Y-130357437D01*
X149162551Y-130363761D01*
X149162562Y-130363788D01*
X149431453Y-131015310D01*
X149431442Y-131024265D01*
X149426056Y-131030144D01*
X148361514Y-131586386D01*
X148352595Y-131587180D01*
X148347823Y-131584289D01*
X147935710Y-131172176D01*
X147932283Y-131163903D01*
X147933611Y-131158490D01*
X148489857Y-130093941D01*
X148496724Y-130088197D01*
X148504687Y-130088545D01*
G37*
G04 #@! TD.AperFunction*
G04 #@! TA.AperFunction,Conductor*
G36*
X125573931Y-132441797D02*
G01*
X125744017Y-132596121D01*
X126405737Y-133196518D01*
X126409561Y-133204614D01*
X126409575Y-133205182D01*
X126409575Y-133788300D01*
X126406148Y-133796573D01*
X126397875Y-133800000D01*
X125011685Y-133800000D01*
X125003412Y-133796573D01*
X124999985Y-133788315D01*
X124999245Y-133196517D01*
X124999006Y-133004859D01*
X125002422Y-132996583D01*
X125557804Y-132442181D01*
X125566079Y-132438762D01*
X125573931Y-132441797D01*
G37*
G04 #@! TD.AperFunction*
G04 #@! TA.AperFunction,Conductor*
G36*
X148504687Y-135168545D02*
G01*
X149156211Y-135437437D01*
X149162551Y-135443761D01*
X149162562Y-135443788D01*
X149431453Y-136095310D01*
X149431442Y-136104265D01*
X149426056Y-136110144D01*
X148361514Y-136666386D01*
X148352595Y-136667180D01*
X148347823Y-136664289D01*
X147935710Y-136252176D01*
X147932283Y-136243903D01*
X147933611Y-136238490D01*
X148489857Y-135173941D01*
X148496724Y-135168197D01*
X148504687Y-135168545D01*
G37*
G04 #@! TD.AperFunction*
G04 #@! TA.AperFunction,Conductor*
G36*
X126016782Y-136026780D02*
G01*
X126022987Y-136033059D01*
X126246090Y-136571699D01*
X126246090Y-136580654D01*
X126245687Y-136581524D01*
X125724025Y-137596569D01*
X125717196Y-137602361D01*
X125709151Y-137602034D01*
X124983569Y-137302238D01*
X124977232Y-137295912D01*
X124678364Y-136571825D01*
X124678375Y-136562870D01*
X124684715Y-136556546D01*
X126007830Y-136026675D01*
X126016782Y-136026780D01*
G37*
G04 #@! TD.AperFunction*
G04 #@! TA.AperFunction,Conductor*
G36*
X115412262Y-132444278D02*
G01*
X115413635Y-132445934D01*
X116319439Y-133769803D01*
X116321283Y-133778566D01*
X116318056Y-133784683D01*
X115624683Y-134478056D01*
X115616410Y-134481483D01*
X115609803Y-134479439D01*
X114285934Y-133573635D01*
X114281041Y-133566135D01*
X114282885Y-133557372D01*
X114284252Y-133555722D01*
X114839293Y-132999293D01*
X115395717Y-132444257D01*
X115403994Y-132440841D01*
X115412262Y-132444278D01*
G37*
G04 #@! TD.AperFunction*
G04 #@! TA.AperFunction,Conductor*
G36*
X135480196Y-135390560D02*
G01*
X136102909Y-135816626D01*
X136804065Y-136296364D01*
X136808958Y-136303864D01*
X136807114Y-136312627D01*
X136805741Y-136314283D01*
X136250727Y-136870687D01*
X136250707Y-136870707D01*
X135694283Y-137425741D01*
X135686005Y-137429158D01*
X135677737Y-137425721D01*
X135676364Y-137424065D01*
X135297737Y-136870687D01*
X134910220Y-136304315D01*
X134770560Y-136100196D01*
X134768716Y-136091433D01*
X134771941Y-136085318D01*
X135465317Y-135391942D01*
X135473589Y-135388516D01*
X135480196Y-135390560D01*
G37*
G04 #@! TD.AperFunction*
G04 #@! TA.AperFunction,Conductor*
G36*
X113455564Y-124462826D02*
G01*
X113462783Y-124468125D01*
X113463586Y-124469712D01*
X113686622Y-125008187D01*
X113686622Y-125017142D01*
X113680725Y-125023283D01*
X112317192Y-125653995D01*
X112308244Y-125654358D01*
X112301661Y-125648288D01*
X112301476Y-125647867D01*
X112000941Y-124924868D01*
X112000931Y-124915917D01*
X112302299Y-124190161D01*
X112308636Y-124183836D01*
X112315891Y-124183286D01*
X113455564Y-124462826D01*
G37*
G04 #@! TD.AperFunction*
G04 #@! TA.AperFunction,Conductor*
G36*
X121503417Y-115641065D02*
G01*
X122635868Y-116156220D01*
X122641979Y-116162765D01*
X122641838Y-116171334D01*
X122342648Y-116896113D01*
X122336323Y-116902453D01*
X122336299Y-116902463D01*
X121611544Y-117201749D01*
X121602589Y-117201740D01*
X121596334Y-117195567D01*
X121132411Y-116119526D01*
X121132283Y-116110574D01*
X121133870Y-116107779D01*
X121489291Y-115644591D01*
X121497045Y-115640115D01*
X121503417Y-115641065D01*
G37*
G04 #@! TD.AperFunction*
G04 #@! TA.AperFunction,Conductor*
G36*
X122699532Y-115315362D02*
G01*
X122702479Y-115320317D01*
X123076121Y-116583767D01*
X123075181Y-116592672D01*
X123069391Y-116597889D01*
X122344490Y-116899134D01*
X122335536Y-116899144D01*
X122335510Y-116899134D01*
X121611459Y-116598242D01*
X121605134Y-116591903D01*
X121605046Y-116583193D01*
X122097097Y-115319389D01*
X122103292Y-115312924D01*
X122108000Y-115311935D01*
X122691259Y-115311935D01*
X122699532Y-115315362D01*
G37*
G04 #@! TD.AperFunction*
G04 #@! TA.AperFunction,Conductor*
G36*
X123035518Y-110263100D02*
G01*
X123128997Y-110301947D01*
X123135322Y-110308286D01*
X123135586Y-110316511D01*
X122702695Y-111592060D01*
X122696792Y-111598793D01*
X122691616Y-111600000D01*
X122108384Y-111600000D01*
X122100111Y-111596573D01*
X122097305Y-111592060D01*
X121664413Y-110316511D01*
X121664999Y-110307575D01*
X121671001Y-110301947D01*
X122395512Y-110000864D01*
X122404461Y-110000854D01*
X123035518Y-110263100D01*
G37*
G04 #@! TD.AperFunction*
G04 #@! TA.AperFunction,Conductor*
G36*
X137422060Y-104947305D02*
G01*
X137428793Y-104953208D01*
X137430000Y-104958384D01*
X137430000Y-105541615D01*
X137426573Y-105549888D01*
X137422060Y-105552694D01*
X136146511Y-105985586D01*
X136137575Y-105985000D01*
X136131947Y-105978997D01*
X136093100Y-105885518D01*
X135830864Y-105254487D01*
X135830854Y-105245538D01*
X136131947Y-104521001D01*
X136138286Y-104514677D01*
X136146510Y-104514413D01*
X137422060Y-104947305D01*
G37*
G04 #@! TD.AperFunction*
G04 #@! TA.AperFunction,Conductor*
G36*
X144771904Y-103238398D02*
G01*
X145496287Y-103537521D01*
X145502625Y-103543846D01*
X145502636Y-103543871D01*
X145801690Y-104268309D01*
X145801679Y-104277263D01*
X145795359Y-104283580D01*
X144743377Y-104720107D01*
X144734422Y-104720112D01*
X144729746Y-104716595D01*
X144365359Y-104259659D01*
X144362880Y-104251054D01*
X144363609Y-104248105D01*
X144756550Y-103244947D01*
X144762758Y-103238494D01*
X144771711Y-103238321D01*
X144771904Y-103238398D01*
G37*
G04 #@! TD.AperFunction*
G04 #@! TA.AperFunction,Conductor*
G36*
X135522424Y-104514999D02*
G01*
X135528052Y-104521002D01*
X135829134Y-105245510D01*
X135829144Y-105254463D01*
X135829135Y-105254485D01*
X135829134Y-105254490D01*
X135528052Y-105978997D01*
X135521713Y-105985322D01*
X135513488Y-105985586D01*
X134237940Y-105552694D01*
X134231207Y-105546791D01*
X134230000Y-105541615D01*
X134230000Y-104958384D01*
X134233427Y-104950111D01*
X134237938Y-104947305D01*
X135513489Y-104514413D01*
X135522424Y-104514999D01*
G37*
G04 #@! TD.AperFunction*
G04 #@! TA.AperFunction,Conductor*
G36*
X106311674Y-113285796D02*
G01*
X106724203Y-113698325D01*
X106727630Y-113706598D01*
X106726474Y-113711670D01*
X106110850Y-114991492D01*
X106104175Y-114997462D01*
X106095840Y-114997234D01*
X105333785Y-114682562D01*
X105327447Y-114676237D01*
X105012765Y-113914158D01*
X105012775Y-113905204D01*
X105018506Y-113899149D01*
X106298331Y-113283524D01*
X106307270Y-113283027D01*
X106311674Y-113285796D01*
G37*
G04 #@! TD.AperFunction*
G04 #@! TA.AperFunction,Conductor*
G36*
X117635518Y-116103100D02*
G01*
X117728997Y-116141947D01*
X117735322Y-116148286D01*
X117735586Y-116156511D01*
X117302695Y-117432060D01*
X117296792Y-117438793D01*
X117291616Y-117440000D01*
X116708384Y-117440000D01*
X116700111Y-117436573D01*
X116697305Y-117432060D01*
X116264413Y-116156511D01*
X116264999Y-116147575D01*
X116271001Y-116141947D01*
X116995512Y-115840864D01*
X117004461Y-115840854D01*
X117635518Y-116103100D01*
G37*
G04 #@! TD.AperFunction*
G04 #@! TA.AperFunction,Conductor*
G36*
X131770352Y-127417758D02*
G01*
X132496306Y-127717545D01*
X132502645Y-127723870D01*
X132502655Y-127723895D01*
X132801674Y-128448270D01*
X132801663Y-128457224D01*
X132795323Y-128463549D01*
X132795304Y-128463557D01*
X131484498Y-129001959D01*
X131475544Y-129001932D01*
X131470687Y-128998148D01*
X131353947Y-128842202D01*
X131121184Y-128531265D01*
X131118970Y-128522590D01*
X131120427Y-128518391D01*
X131755764Y-127422702D01*
X131762879Y-127417265D01*
X131770352Y-127417758D01*
G37*
G04 #@! TD.AperFunction*
M02*
